<svg width="1512" height="119" viewBox="0 0 1512 119" fill="none" xmlns="http://www.w3.org/2000/svg">
<g clip-path="url(#clip0_5_11)">
<path d="M326.976 118.824C166.125 118.824 56.7025 -12.2952 0 35.3078V-161.501H1512V17.152C1397.56 17.152 1367.62 101.395 1183.35 101.395C1041.59 101.395 979.345 35.3078 753.1 35.3078C526.853 35.3078 487.827 118.824 326.976 118.824Z" fill="#327B7B"/>
<path d="M326.976 87.3272C166.125 87.3272 135.009 4.05698 0 4.05698V-171.85L1512 -172V4.05698C1397.56 4.05698 1362.36 54.8121 1166.02 54.8121C1040.54 54.8121 979.345 24.6763 753.1 24.6763C526.853 24.6763 487.827 87.3272 326.976 87.3272Z" fill="#1E6864"/>
</g>
<defs>
<clipPath id="clip0_5_11">
<rect width="1512" height="119" fill="white"/>
</clipPath>
</defs>
</svg>
