<svg width="110" height="52" viewBox="0 0 110 52" fill="none" xmlns="http://www.w3.org/2000/svg">
<g clip-path="url(#clip0_0_1326)">
<path d="M15.0371 7.74834C14.4435 7.74834 13.9451 7.34288 13.7771 6.77633C13.2562 5.01559 11.8058 4.15467 9.22966 4.15467C6.43514 4.15467 4.96228 5.1489 4.96228 6.9263C4.96228 8.42042 6.00392 9.27024 8.65284 9.91455C11.341 10.5533 13.9563 11.1921 15.7147 11.9752C17.7924 12.8972 19.4445 14.358 19.4445 17.7018C19.4445 22.8951 15.5019 25.2002 9.94649 25.2002C4.39105 25.2002 0.812494 23.1006 0.02286 18.8126C-0.122746 18.0295 0.521282 17.313 1.32212 17.313H3.60702C4.19504 17.313 4.66546 17.7295 4.82787 18.2905C5.35989 20.129 7.24718 21.2232 9.98569 21.2232C12.9258 21.2232 14.6115 19.9791 14.6115 17.8795C14.6115 16.4909 13.8947 15.5356 10.9209 14.8913C7.98081 14.2525 6.08232 13.8248 4.39665 13.075C1.84294 11.9474 0.409277 10.2423 0.409277 7.25401C0.409277 3.02158 3.3158 0 9.12326 0C14.4435 0 17.6916 2.52168 18.5037 6.22089C18.6773 7.00961 18.0276 7.74834 17.21 7.74834H15.0371Z" fill="white"/>
<path d="M33.6125 24.3892C32.8901 24.3892 32.302 23.806 32.302 23.0895V13.5415C32.302 10.9088 31.406 10.0923 29.2891 10.0923C26.9594 10.0923 25.6714 12.0141 25.6714 14.358V23.0895C25.6714 23.806 25.0833 24.3892 24.3609 24.3892H22.3168C21.5944 24.3892 21.0063 23.806 21.0063 23.0895V1.79405C21.0063 1.07753 21.5944 0.494324 22.3168 0.494324H24.3609C25.0833 0.494324 25.6714 1.07753 25.6714 1.79405V6.10424C25.6714 7.10402 26.7466 7.68723 27.637 7.21511C28.5275 6.74299 29.6867 6.43194 30.8684 6.43194C34.4861 6.43194 37.0006 8.5315 37.0006 12.0141V23.0895C37.0006 23.806 36.4126 24.3892 35.6902 24.3892H33.6125Z" fill="white"/>
<path d="M39.3417 1.61634L40.5569 0.411038C41.0666 -0.09441 41.8954 -0.09441 42.405 0.411038L43.8499 1.84406C44.3595 2.34951 44.3595 3.17156 43.8499 3.67701L42.6346 4.8823C42.125 5.38775 41.2962 5.38775 40.7866 4.8823L39.3417 3.44928C38.8321 2.94383 38.8321 2.12178 39.3417 1.61634ZM39.2689 23.0951V8.19271C39.2689 7.47619 39.8569 6.89299 40.5793 6.89299H42.6234C43.3459 6.89299 43.9339 7.47619 43.9339 8.19271V23.0895C43.9339 23.806 43.3459 24.3892 42.6234 24.3892H40.5793C39.8569 24.3892 39.2689 23.806 39.2689 23.0895V23.0951Z" fill="white"/>
<path d="M47.8709 23.0951V11.4698C47.8709 10.7532 47.2829 10.17 46.5605 10.17C45.838 10.17 45.25 9.58683 45.25 8.87032V8.19268C45.25 7.47617 45.838 6.89296 46.5605 6.89296H46.6445C47.3053 6.89296 47.8597 6.39307 47.9381 5.74321C48.3133 2.63276 50.3014 0.905352 53.9304 0.560981C54.6976 0.488774 55.364 1.09975 55.364 1.8607V3.01601C55.364 3.64366 54.9104 4.20465 54.2888 4.29352C54.2496 4.29352 54.216 4.30463 54.1824 4.31018C52.6031 4.56568 52.8327 6.89851 54.4288 6.88741C55.1568 6.88741 55.8849 6.88185 56.6129 6.8763C57.3409 6.87074 57.901 7.42618 57.929 8.12603L57.9514 8.82033C57.9794 9.5535 57.3857 10.1645 56.6465 10.1645C55.6889 10.1645 54.7312 10.1645 53.7736 10.1645C53.0511 10.1645 52.4687 10.7477 52.4687 11.4642V23.0895C52.4687 23.806 51.8807 24.3892 51.1583 24.3892H49.187C48.4645 24.3892 47.8765 23.806 47.8765 23.0895L47.8709 23.0951Z" fill="white"/>
<path d="M67.9309 12.8695H69.6502C70.3726 12.8695 70.9606 13.4527 70.9606 14.1692V17.8517C70.9606 21.5509 68.8101 24.8558 63.8259 24.8558C58.8417 24.8558 56.6184 21.5843 56.6184 17.8184V3.46592C56.6184 2.74941 57.2064 2.1662 57.9289 2.1662H59.9002C60.6226 2.1662 61.2106 2.74941 61.2106 3.46592V5.5988C61.2106 6.31531 61.7986 6.89852 62.5211 6.89852H69.6558C70.3782 6.89852 70.9662 7.48173 70.9662 8.19824V8.87588C70.9662 9.59239 70.3782 10.1756 69.6558 10.1756H62.5211C61.7986 10.1756 61.2106 10.7588 61.2106 11.4753V17.3574C61.2106 19.5625 62.0002 20.84 63.8987 20.84C65.7972 20.84 66.6204 19.5958 66.6204 17.4241V14.1692C66.6204 13.4527 67.2085 12.8695 67.9309 12.8695Z" fill="white"/>
<path d="M61.2609 51.539C60.5385 51.539 59.9505 50.9558 59.9505 50.2393V40.9413C59.9505 38.8417 58.8416 37.3476 57.1896 37.3476C55.5375 37.3476 54.2158 38.9472 54.2158 41.0801V50.2337C54.2158 50.9502 53.6278 51.5334 52.9054 51.5334H50.8613C50.1388 51.5334 49.5508 50.9502 49.5508 50.2337V41.0079C49.5508 38.1974 48.8004 37.4864 46.7563 37.4864C44.8914 37.4864 43.9226 38.6251 43.9226 40.9024V50.2337C43.9226 50.9502 43.3345 51.5334 42.6121 51.5334H40.568C39.8456 51.5334 39.2576 50.9502 39.2576 50.2337V35.3369C39.2576 34.6204 39.8456 34.0372 40.568 34.0372H42.3265C43.0489 34.0372 43.637 34.6204 43.637 35.3369V36.5977C44.8186 34.2871 46.4707 33.5762 48.8004 33.5762C50.5981 33.5762 51.6901 33.9927 52.6982 35.0536C53.2134 35.5924 54.0814 35.6091 54.5854 35.0647C55.5375 34.0427 56.8311 33.5762 58.4776 33.5762C62.0282 33.5762 64.4979 36.1367 64.4979 39.4083V50.2337C64.4979 50.9502 63.9098 51.5334 63.1874 51.5334H61.2497L61.2609 51.539Z" fill="white"/>
<path d="M67.3317 28.7661L68.5469 27.5608C69.0566 27.0553 69.8854 27.0553 70.395 27.5608L71.8399 28.9938C72.3495 29.4993 72.3495 30.3213 71.8399 30.8268L70.6246 32.0321C70.115 32.5375 69.2862 32.5375 68.7765 32.0321L67.3317 30.599C66.8221 30.0936 66.8221 29.2715 67.3317 28.7661ZM67.2589 50.2393V35.3425C67.2589 34.6259 67.8469 34.0427 68.5693 34.0427H70.6134C71.3359 34.0427 71.9239 34.6259 71.9239 35.3425V50.2393C71.9239 50.9558 71.3359 51.539 70.6134 51.539H68.5693C67.8469 51.539 67.2589 50.9558 67.2589 50.2393Z" fill="white"/>
<path d="M87.2797 51.539C86.5573 51.539 85.9693 50.9558 85.9693 50.2393V40.9413C85.9693 38.2363 85.1796 37.492 82.9564 37.492C80.5202 37.492 79.3386 38.8417 79.3386 41.5078V50.2393C79.3386 50.9558 78.7506 51.539 78.0281 51.539H75.984C75.2616 51.539 74.6736 50.9558 74.6736 50.2393V35.3425C74.6736 34.6259 75.2616 34.0427 75.984 34.0427H77.8153C78.5378 34.0427 79.1258 34.6259 79.1258 35.3425V36.6033C80.201 34.6482 81.9931 33.5817 84.8268 33.5817C88.1982 33.5817 90.6679 35.6091 90.6679 39.4138V50.2393C90.6679 50.9558 90.0799 51.539 89.3574 51.539H87.2797Z" fill="white"/>
<path d="M106.802 51.539C106.085 51.539 105.509 50.9725 105.492 50.2615L105.475 49.4061C104.366 51.1835 102.714 52 100.564 52C96.117 52 92.9304 48.5174 92.9304 42.6131C92.9304 37.3143 95.6185 33.5817 100.172 33.5817C101.387 33.5817 102.456 33.8539 103.397 34.4149C104.282 34.9425 105.408 34.3871 105.408 33.3651V28.9438C105.408 28.2273 105.996 27.6441 106.718 27.6441H108.69C109.412 27.6441 110 28.2273 110 28.9438V50.2393C110 50.9558 109.412 51.539 108.69 51.539H106.802ZM105.587 43.2186C105.587 39.4138 104.26 37.5309 101.678 37.5309C98.9507 37.5309 97.6626 39.3416 97.6626 42.9353C97.6626 46.0624 99.3091 48.2341 101.639 48.2341C103.969 48.2341 105.581 46.1735 105.581 43.2241L105.587 43.2186Z" fill="white"/>
<path d="M90.7296 17.3019C86.115 17.3796 84.3117 19.6514 80.4588 18.2572C79.8484 18.035 76.393 16.7075 75.3234 13.4804C73.8953 9.1536 77.9163 4.87673 78.2131 4.57124C83.4885 -0.883149 93.569 0.488781 99.7124 3.29929C102.177 4.42683 109.614 7.8261 109.983 14.1192C110.146 16.9242 108.942 20.8789 106.13 22.0786C101.841 23.906 98.7492 17.1741 90.724 17.3019H90.7296Z" fill="url(#paint0_linear_0_1326)"/>
<path d="M92.2025 19.3459C91.2169 19.1959 88.932 18.9571 86.3335 19.8235C84.8046 20.329 83.2422 20.8455 82.8333 22.1119C82.2677 23.8393 84.183 25.9611 85.7343 26.9553C86.8991 27.6996 88.1256 27.8607 90.5281 28.144C94.1066 28.5661 95.8931 28.7772 97.478 27.8052C98.71 27.0442 100.25 25.3946 100.037 23.706C99.6229 20.4623 92.9978 19.4681 92.2081 19.3514L92.2025 19.3459Z" fill="url(#paint1_linear_0_1326)"/>
</g>
<defs>
<linearGradient id="paint0_linear_0_1326" x1="104.097" y1="9.07583" x2="79.8975" y2="16.2993" gradientUnits="userSpaceOnUse">
<stop stop-color="#D67BB2"/>
<stop offset="0.5" stop-color="#688AC6"/>
<stop offset="1" stop-color="#61CCF0"/>
</linearGradient>
<linearGradient id="paint1_linear_0_1326" x1="85.9135" y1="21.5232" x2="98.141" y2="26.806" gradientUnits="userSpaceOnUse">
<stop stop-color="#D67BB2"/>
<stop offset="0.5" stop-color="#688AC6"/>
<stop offset="1" stop-color="#61CCF0"/>
</linearGradient>
<clipPath id="clip0_0_1326">
<rect width="110" height="52" fill="white"/>
</clipPath>
</defs>
</svg>
