<svg width="52" height="52" viewBox="0 0 52 52" fill="none" xmlns="http://www.w3.org/2000/svg">
<path fill-rule="evenodd" clip-rule="evenodd" d="M25.1011 1.00201C25.4991 0.491475 26.27 0.487949 26.6727 0.994819L27.279 1.75802C27.6379 2.2097 28.3035 2.2649 28.7318 1.87851L29.4556 1.2256C29.9363 0.792066 30.6959 0.922419 31.0045 1.49139L31.4695 2.34871C31.7445 2.85575 32.3902 3.02563 32.8791 2.71955L33.7052 2.20239C34.2538 1.85895 34.9791 2.1192 35.1843 2.73305L35.4933 3.65773C35.6761 4.20479 36.2825 4.48419 36.8171 4.26765L37.7206 3.9017C38.3205 3.65871 38.9898 4.04103 39.0851 4.68123L39.2288 5.64586C39.3138 6.2165 39.8627 6.59703 40.4269 6.47644L41.3795 6.27284C42.0126 6.13751 42.6054 6.63029 42.5881 7.27746L42.5621 8.25219C42.5467 8.82887 43.0211 9.29894 43.5976 9.27826L44.5719 9.2433C45.2189 9.22009 45.7171 9.80841 45.5876 10.4427L45.3927 11.3973C45.2772 11.9626 45.6628 12.508 46.2342 12.5878L47.1994 12.7225C47.8405 12.8119 48.2289 13.4776 47.9915 14.0798L47.6338 14.9866C47.4222 15.5231 47.7071 16.127 48.2558 16.3048L49.1833 16.6054C49.7991 16.8049 50.0659 17.5279 49.7274 18.0796L49.2173 18.911C48.9156 19.4027 49.0914 20.047 49.601 20.3174L50.4623 20.7742C51.0342 21.0776 51.1714 21.8362 50.7422 22.3208L50.0958 23.0503C49.7132 23.4822 49.7745 24.1473 50.2295 24.502L50.9979 25.1012C51.5085 25.4993 51.512 26.2702 51.0051 26.6728L50.2419 27.2791C49.7901 27.638 49.7349 28.3037 50.1214 28.7321L50.7746 29.456C51.2083 29.9366 51.0779 30.6965 50.5088 31.005L49.6518 31.4696C49.1446 31.7446 48.9746 32.3906 49.2809 32.8796L49.7979 33.705C50.1415 34.2536 49.8813 34.9791 49.2674 35.1843L48.3422 35.4934C47.7951 35.6762 47.5157 36.2829 47.7324 36.8175L48.0985 37.7207C48.3417 38.3206 47.9594 38.9901 47.3191 39.0854L46.3548 39.2291C45.7843 39.3141 45.4038 39.8627 45.5241 40.4268L45.7275 41.3803C45.8625 42.0132 45.3699 42.6058 44.7229 42.5885L43.7487 42.5626C43.1721 42.5472 42.7021 43.0216 42.7227 43.598L42.7576 44.5726C42.7807 45.2196 42.1923 45.7177 41.558 45.5881L40.6033 45.393C40.0381 45.2776 39.4926 45.663 39.4128 46.2344L39.2779 47.1998C39.1883 47.8408 38.5225 48.2291 37.9204 47.9916L37.0136 47.6337C36.477 47.422 35.8731 47.7069 35.6952 48.2556L35.3945 49.1835C35.1949 49.7993 34.4718 50.0661 33.9201 49.7275L33.0897 49.2178C32.598 48.916 31.9537 49.0917 31.6833 49.6013L31.2261 50.4627C30.9226 51.0346 30.164 51.1717 29.6795 50.7424L28.9505 50.0963C28.5187 49.7136 27.8535 49.7748 27.4987 50.2298L26.8996 50.9981C26.5015 51.5086 25.7307 51.5121 25.328 51.0052L24.7217 50.2421C24.3628 49.7904 23.6972 49.7352 23.2689 50.1217L22.5449 50.775C22.0642 51.2087 21.3044 51.0783 20.9959 50.5091L20.5312 49.652C20.2563 49.1448 19.6103 48.9749 19.1213 49.2811L18.2953 49.7984C17.7466 50.1421 17.0209 49.8816 16.816 49.2674L16.5076 48.3431C16.3249 47.7957 15.7181 47.5161 15.1833 47.7329L14.2798 48.0991C13.6798 48.3423 13.0103 47.9599 12.915 47.3195L12.7716 46.3554C12.6868 45.7848 12.138 45.4041 11.5738 45.5245L10.6203 45.728C9.98728 45.8631 9.39464 45.3703 9.412 44.7232L9.43814 43.7492C9.45361 43.1725 8.97927 42.7024 8.40275 42.723L7.4284 42.7579C6.78141 42.781 6.2833 42.1926 6.41288 41.5583L6.60795 40.6035C6.72342 40.0383 6.338 39.4929 5.76666 39.413L4.80016 39.2778C4.15913 39.1882 3.77084 38.5225 4.00845 37.9204L4.36618 37.0139C4.57795 36.4773 4.29302 35.8733 3.74423 35.6955L2.81662 35.395C2.2008 35.1954 1.93396 34.4723 2.27258 33.9206L2.78234 33.09C3.08406 32.5984 2.90848 31.9542 2.39906 31.6837L1.53758 31.2263C0.965987 30.9227 0.828882 30.1645 1.25799 29.68L1.90419 28.9505C2.28663 28.5187 2.2255 27.8538 1.77073 27.499L1.00168 26.899C0.491298 26.5008 0.487985 25.73 0.994925 25.3274L1.75777 24.7217C2.20957 24.3629 2.26489 23.6973 1.87853 23.2688L1.22529 22.5445C0.791767 22.0637 0.922309 21.304 1.49144 20.9956L2.34826 20.5312C2.85548 20.2563 3.02552 19.6104 2.71939 19.1214L2.20221 18.2953C1.85872 17.7466 2.11916 17.0211 2.7332 16.8161L3.65729 16.5076C4.20452 16.325 4.48409 15.7184 4.26753 15.1837L3.90141 14.2797C3.6584 13.6797 4.04085 13.0104 4.68116 12.9152L5.6456 12.7718C6.21633 12.6869 6.59699 12.1379 6.47641 11.5737L6.27276 10.6207C6.13746 9.98756 6.6303 9.39471 7.27749 9.41207L8.25202 9.43821C8.82874 9.45368 9.29888 8.97926 9.27819 8.40271L9.24324 7.42878C9.22003 6.7818 9.80835 6.28362 10.4427 6.41314L11.3972 6.60805C11.9625 6.72349 12.5079 6.33788 12.5877 5.76644L12.7224 4.80062C12.8119 4.15944 13.4777 3.77095 14.0799 4.0086L14.9868 4.36648C15.5234 4.57827 16.1275 4.29321 16.3052 3.7443L16.6055 2.81688C16.8049 2.20096 17.5281 1.93398 18.0799 2.27257L18.9107 2.78236C19.4023 3.08406 20.0466 2.90833 20.317 2.39878L20.7738 1.53792C21.0772 0.966195 21.8355 0.828921 22.3201 1.25802L23.0502 1.90451C23.482 2.28695 24.147 2.22566 24.5017 1.77072L25.1011 1.00201Z" fill="url(#paint0_linear_0_1496)"/>
<path fill-rule="evenodd" clip-rule="evenodd" d="M26.0006 14.2078C32.4955 14.2078 37.7929 19.5053 37.7929 26.0002C37.7929 32.4951 32.4955 37.7926 26.0006 37.7926C19.5057 37.7926 14.2083 32.4951 14.2083 26.0002C14.2083 19.5053 19.5057 14.2078 26.0006 14.2078ZM41.1129 25.0258C41.6503 25.0258 42.0883 25.4639 42.0883 26.0002C42.0883 26.5365 41.6503 26.9756 41.1129 26.9756C40.5756 26.9756 40.1385 26.5376 40.1385 26.0002C40.1385 25.4628 40.5756 25.0258 41.1129 25.0258ZM10.8882 25.0258C11.4256 25.0258 11.8636 25.4639 11.8636 26.0002C11.8636 26.5365 11.4256 26.9756 10.8882 26.9756C10.3508 26.9756 9.91382 26.5376 9.91382 26.0002C9.91382 25.4628 10.3519 25.0258 10.8882 25.0258ZM26.0006 7.10376C36.4087 7.10376 44.8966 15.5927 44.8966 25.9999C44.8966 36.407 36.4087 44.896 26.0006 44.896C15.5925 44.896 7.10425 36.4084 7.10425 26.0002C7.10425 15.592 15.5932 7.10376 26.0006 7.10376Z" fill="#134A47"/>
<path d="M25.7251 11.095L24.7629 8.15137L25.5969 8.16599L26.1257 9.9818L26.7155 8.18538L27.5548 8.2L26.4838 11.1075L26.4471 13.2145L25.6884 13.2016L25.7251 11.0946V11.095Z" fill="white"/>
<path d="M28.5 13.4697L29.8039 8.60962L30.9018 8.90449C31.1909 8.98169 31.4306 9.1276 31.6225 9.34254C31.7878 9.52449 31.8762 9.76325 31.8881 10.0581C31.8962 10.2152 31.8731 10.3935 31.819 10.5917C31.7327 10.9179 31.5745 11.1556 31.3497 11.3063C31.2558 11.3689 31.1524 11.41 31.0433 11.4267C31.1892 11.5325 31.2949 11.692 31.3589 11.9062C31.4004 12.0504 31.4133 12.2266 31.3966 12.4324C31.3885 12.5381 31.3674 12.6528 31.3334 12.7759C31.2518 13.0843 31.1229 13.3289 30.9487 13.5125C30.8127 13.6578 30.6491 13.7567 30.4573 13.8139C30.2406 13.8771 30.0403 13.8836 29.8577 13.835L28.5003 13.4704L28.5 13.4697ZM29.4856 12.9582L29.7914 13.0398C30.0403 13.1068 30.2451 13.0252 30.4103 12.7946C30.4675 12.7157 30.5114 12.6191 30.5416 12.5055C30.6144 12.2338 30.6161 12.0225 30.5454 11.8719C30.4828 11.7324 30.3617 11.6386 30.1808 11.5899L29.875 11.5083L29.486 12.9585L29.4856 12.9582ZM30.0631 10.8063L30.3689 10.888C30.5957 10.9495 30.7783 10.8788 30.9161 10.6778C30.9664 10.6023 31.0079 10.504 31.0399 10.3829C31.095 10.1819 31.0858 10.0156 31.0161 9.88602C30.9511 9.76665 30.8464 9.68672 30.7022 9.64829L30.3954 9.56565L30.0628 10.8063H30.0631Z" fill="white"/>
<path d="M22.0432 13.7989L20.9089 8.89465L23.0118 8.40967L23.1835 9.15177L21.8187 9.46671L22.1282 10.8047L23.1257 10.5751L23.2975 11.3172L22.3003 11.5468L22.6088 12.8851L23.9732 12.5701L24.146 13.3122L22.0428 13.7989H22.0432Z" fill="white"/>
<path d="M32.8765 13.871L32.1078 14.7535L31.4375 14.3349L34.828 10.5237L35.7132 11.0763L33.7624 15.7898L33.0856 15.3654L33.5475 14.291L32.8761 13.8713L32.8765 13.871ZM34.6572 11.7742L33.3679 13.3081L33.8444 13.6057L34.6572 11.7742Z" fill="white"/>
<path d="M17.6256 10.257L20.0135 12.856L18.5303 9.81519L19.2125 9.48291L21.4194 14.008L20.6865 14.3651L18.3344 11.9259L19.7478 14.8235L19.0663 15.1562L16.8594 10.6301L17.6256 10.2573V10.257Z" fill="white"/>
<path d="M34.9989 17.0488C34.7656 16.8074 34.6537 16.5217 34.6591 16.1911C34.6649 15.8595 34.787 15.5786 35.0258 15.349L37.0014 13.4407C37.2418 13.2084 37.5286 13.0955 37.8608 13.1026C38.1934 13.1091 38.4744 13.2322 38.705 13.472C38.9376 13.7124 39.0495 13.9974 39.0423 14.3297C39.0338 14.6603 38.9117 14.9415 38.673 15.1711L38.2598 15.5707L37.7125 15.0041L38.1366 14.5946C38.223 14.511 38.2683 14.4089 38.271 14.2869C38.2727 14.1665 38.2326 14.0617 38.1486 13.9757C38.0649 13.8883 37.9622 13.8451 37.8428 13.8434C37.7217 13.8434 37.6187 13.8838 37.5323 13.9675L35.5502 15.8806C35.4638 15.9642 35.4189 16.0659 35.4179 16.1853C35.4152 16.3047 35.4563 16.4074 35.54 16.4938C35.6236 16.5802 35.7257 16.6261 35.8457 16.6278C35.9651 16.6315 36.0682 16.591 36.1552 16.5074L36.6538 16.0251L37.201 16.5907L36.6956 17.0794C36.4549 17.311 36.1685 17.424 35.8379 17.4158C35.5073 17.4083 35.2264 17.2852 34.9985 17.0492L34.9989 17.0488Z" fill="white"/>
<path d="M14.3378 12.4647C14.5939 12.2498 14.8871 12.1569 15.2187 12.1865C15.5482 12.2178 15.821 12.3593 16.0342 12.6127L17.7987 14.7159C18.0146 14.973 18.1072 15.2658 18.0759 15.5967C18.0463 15.9273 17.9048 16.2001 17.6507 16.4133C17.3946 16.6283 17.1008 16.7201 16.7719 16.6888C16.4424 16.6585 16.1713 16.516 15.9564 16.2616L14.1929 14.1584C13.9777 13.9023 13.8845 13.6085 13.9144 13.2776C13.9447 12.947 14.0851 12.6769 14.3378 12.4647ZM15.4176 13.1085C15.3408 13.0167 15.2425 12.9654 15.1238 12.9541C15.0061 12.9449 14.8997 12.9779 14.8068 13.0551C14.715 13.1323 14.6636 13.2317 14.6517 13.351C14.6408 13.4704 14.6738 13.5769 14.7507 13.6687L16.5206 15.7783C16.5978 15.8702 16.6961 15.9215 16.8155 15.9307C16.9365 15.9399 17.0423 15.9059 17.1341 15.8287C17.227 15.7515 17.2783 15.6522 17.2875 15.5348C17.2987 15.4155 17.2654 15.3107 17.1882 15.2189L15.4176 13.1082V13.1085Z" fill="white"/>
<path d="M38.0977 18.1816L36.7145 18.9798L36.3359 18.3231L40.6957 15.8049L41.0749 16.4627L39.521 17.3599L41.5388 17.2653L41.9439 17.967L39.6461 18.0938L37.6732 20.6395L37.2267 19.8661L38.599 18.154L38.0973 18.1816H38.0977Z" fill="white"/>
<path d="M14.6706 19.9556L14.2574 20.5912L10.0364 17.849L10.6295 16.9368L14.0458 18.3135L11.3845 15.775L11.9545 14.8972L16.1749 17.6395L15.7616 18.2748L13.1092 16.5518L15.4035 18.8274L15.0709 19.3383L12.0246 18.2363L14.6706 19.9556Z" fill="white"/>
<path d="M10.5534 35.2773C10.3854 34.9872 10.3459 34.6821 10.4323 34.3607C10.5187 34.041 10.7051 33.7968 10.9908 33.6332L13.3677 32.2592C13.6578 32.0922 13.9629 32.0517 14.2843 32.1398C14.604 32.2262 14.8482 32.4136 15.0145 32.701C15.1815 32.9904 15.2213 33.2952 15.1328 33.6149C15.0465 33.9346 14.8591 34.177 14.571 34.343L14.0741 34.6304L13.6803 33.9478L14.1918 33.6529C14.2955 33.5924 14.3635 33.5043 14.3948 33.3866C14.4271 33.27 14.4125 33.1598 14.352 33.0544C14.2924 32.9506 14.204 32.8836 14.0863 32.854C13.9707 32.8228 13.8605 32.8374 13.7558 32.8983L11.3717 34.276C11.2669 34.3355 11.1992 34.4229 11.1679 34.5386C11.1387 34.6545 11.1533 34.7627 11.2128 34.8675C11.2734 34.9719 11.3608 35.0399 11.4764 35.0732C11.592 35.1045 11.7022 35.0906 11.8063 35.0307L12.6623 34.5369L12.4518 34.1713L13.112 33.7893L13.7163 34.8362L12.1937 35.716C11.9046 35.883 11.5995 35.9218 11.2798 35.8354C10.9605 35.7473 10.718 35.5616 10.5544 35.2769L10.5534 35.2773Z" fill="white"/>
<path d="M40.8563 36.0689L36.5417 33.477L37.6539 31.6255L38.3069 32.0186L37.5859 33.2192L38.7623 33.9263L39.2894 33.0492L39.9434 33.4423L39.4163 34.3184L40.5937 35.0255L41.3157 33.8249L41.9687 34.2171L40.8563 36.0686V36.0689Z" fill="white"/>
<path d="M13.4308 38.836C13.1938 38.599 13.0765 38.316 13.0754 37.9864C13.0765 37.6576 13.1931 37.3756 13.4271 37.1416L16.1785 34.3909L16.7036 34.9163L13.9577 37.6603C13.8733 37.7456 13.8308 37.8477 13.8325 37.9688C13.8325 38.0881 13.8757 38.1912 13.9611 38.2755C14.0454 38.3619 14.1485 38.4041 14.2678 38.4041C14.3872 38.4041 14.4882 38.3616 14.5736 38.2765L17.3189 35.5312L17.8773 36.0897L15.1266 38.8415C14.8889 39.0802 14.6039 39.1975 14.276 39.1931C13.9464 39.1894 13.6645 39.07 13.4302 38.836H13.4308Z" fill="white"/>
<path d="M38.0935 39.2714L34.4714 35.7741L35.9713 34.2202L36.5205 34.7494L35.5468 35.7578L36.5352 36.7132L37.246 35.9765L37.7952 36.5054L37.0834 37.242L38.0707 38.1953L39.0444 37.1869L39.5937 37.7178L38.0938 39.2718L38.0935 39.2714Z" fill="white"/>
<path d="M17.4363 40.4317L16.6677 41.3153L15.9973 40.8966L19.3881 37.0854L20.2734 37.6381L18.3226 42.3496L17.6458 41.9272L18.1076 40.8528L17.4363 40.4321V40.4317ZM19.217 38.336L17.9274 39.8688L18.4039 40.1675L19.2167 38.336H19.217Z" fill="white"/>
<path d="M32.6807 37.9233L32.0121 38.3733L31.5859 37.7414L33.5493 36.417L33.9755 37.0496L33.3096 37.4989L35.6947 41.0356L35.0658 41.459L32.6807 37.9233Z" fill="white"/>
<path d="M22.8195 38.4911C23.2293 38.5932 23.5021 38.7816 23.6378 39.056C23.7572 39.2948 23.7728 39.5914 23.6847 39.9441L23.5082 40.6542C23.4218 40.9987 23.2181 41.2585 22.8957 41.431L22.9093 43.6978L22.1131 43.4991L22.125 41.5493C22.1046 41.5449 22.0829 41.5391 22.0601 41.533L21.635 41.4272L21.1758 43.2648L20.4402 43.0812L21.6581 38.2007L22.8199 38.4908L22.8195 38.4911ZM22.9648 39.7771C23.0355 39.4941 22.9318 39.3179 22.6505 39.2482L22.206 39.137L21.8166 40.6994L22.2601 40.8096C22.3777 40.8389 22.4869 40.8225 22.59 40.76C22.693 40.6977 22.7569 40.6066 22.7865 40.4899L22.9648 39.7771Z" fill="white"/>
<path d="M29.3788 38.4403L31.2789 41.4142L30.3467 38.1621L31.0759 37.9536L32.4628 42.7909L31.6785 43.0157L29.7886 40.2054L30.6759 43.3034L29.9464 43.5119L28.5598 38.6746L29.3791 38.4403H29.3788Z" fill="white"/>
<path d="M25.9461 42.7605L25.823 43.9243L25.0339 43.9655L25.6226 38.8976L26.664 38.8425L27.7717 43.822L26.9756 43.8635L26.7368 42.718L25.9461 42.7602V42.7605ZM26.2005 40.022L26.025 42.0167L26.5862 41.9875L26.2005 40.022Z" fill="white"/>
<path d="M25.9992 5.45865H25.9975C20.341 5.45865 15.2062 7.76556 11.4858 11.487C7.76442 15.2074 5.45718 20.3432 5.45718 25.9995V26.0005C5.45718 31.6571 7.76408 36.7916 11.4858 40.513C15.2065 44.2338 20.342 46.5407 25.9986 46.5407H25.9996C31.6558 46.5407 36.7906 44.2338 40.512 40.513C44.2327 36.7916 46.5396 31.6568 46.5406 25.9995V25.9985C46.5396 20.3419 44.2334 15.207 40.512 11.4866C36.791 7.76522 31.6558 5.45831 25.9996 5.45831M25.9986 4.95972H25.9996C31.7939 4.95972 37.0535 7.32275 40.8647 11.1339C44.6759 14.9455 47.0382 20.2052 47.0382 25.9985V25.9995C47.0382 31.7938 44.6752 37.0542 40.8637 40.8657C37.0532 44.6772 31.7935 47.0393 25.9992 47.0393H25.9982C20.2039 47.0393 14.9436 44.6762 11.1328 40.8647C7.32161 37.0542 4.95825 31.7945 4.95825 26.0002V25.9991C4.95825 20.2048 7.32127 14.9445 11.1328 11.1339C14.9443 7.32275 20.2039 4.95972 25.9972 4.95972H25.9982H25.9986Z" fill="#134A47"/>
<path d="M24.4465 27.1701L20.8842 23.5073L18.6875 25.766L24.4465 31.6875L33.3125 22.5712L31.1158 20.3125L24.4465 27.1701Z" fill="#FFF8E8"/>
<defs>
<linearGradient id="paint0_linear_0_1496" x1="3.52857" y1="26.3881" x2="50.8104" y2="27.8785" gradientUnits="userSpaceOnUse">
<stop stop-color="#F276D3"/>
<stop offset="0.3" stop-color="#5A91FF"/>
<stop offset="0.835" stop-color="#3EF8FF"/>
</linearGradient>
</defs>
</svg>
