<svg width="48" height="49" viewBox="0 0 48 49" fill="none" xmlns="http://www.w3.org/2000/svg">
<path d="M23.9998 38.3918C23.875 38.3918 23.7406 38.3534 23.6254 38.2862C17.5582 34.6286 11.6638 34.6286 5.587 38.2862C5.3662 38.4206 5.0878 38.4206 4.8574 38.2958C4.6462 38.171 4.5022 37.931 4.5022 37.6718V8.62218C4.5022 8.35338 4.6558 8.10378 4.8862 7.97898C11.3374 4.61898 17.875 4.61898 24.3262 7.97898C24.5662 8.10378 24.7102 8.35338 24.7102 8.62218V37.6718C24.7102 37.931 24.5662 38.171 24.3454 38.2958C24.2398 38.363 24.1246 38.3918 23.9998 38.3918ZM14.611 34.1294C17.5102 34.1294 20.3998 34.8974 23.2798 36.4334V9.06378C17.5294 6.19338 11.7022 6.19338 5.9422 9.06378V36.443C8.8222 34.8974 11.7214 34.1294 14.611 34.1294Z" fill="#F175B9"/>
<path fill-rule="evenodd" clip-rule="evenodd" d="M23.8406 38.3724C23.894 38.3852 23.9479 38.3919 24.0001 38.3919C24.1249 38.3919 24.2593 38.3631 24.3649 38.2863C27.0159 36.6881 29.6358 35.7883 32.2518 35.5867C35.6219 35.3276 38.9856 36.2275 42.4009 38.2865C42.5161 38.3537 42.6505 38.3921 42.7753 38.3921C42.8658 38.3921 42.9512 38.3769 43.0279 38.343C43.0637 38.3301 43.0988 38.3144 43.1329 38.2959C43.3537 38.1711 43.4977 37.9311 43.4977 37.6719V10.7825H44.3891C45.0515 10.7825 45.5987 11.3201 45.5987 11.9921V40.1297C45.5987 40.6577 45.3203 41.1185 44.8691 41.3777C44.4083 41.6369 43.8707 41.6273 43.4195 41.3585L41.3171 40.0913C35.9027 36.8273 30.8723 36.8273 25.4579 40.0913L23.9987 40.9745L22.5395 40.0913C17.1251 36.8273 12.0947 36.8273 6.68034 40.0913L4.57794 41.3585C4.12674 41.6273 3.58914 41.6369 3.12834 41.3777C2.66754 41.1185 2.39874 40.6577 2.39874 40.1297V11.9921C2.39874 11.3297 2.93634 10.7825 3.60834 10.7825H4.50249V37.6719C4.50249 37.9311 4.64649 38.1711 4.85769 38.2959C5.08809 38.4207 5.36649 38.4207 5.58729 38.2863C11.634 34.6468 17.5 34.6288 23.5354 38.2321C23.5657 38.2559 23.5982 38.2773 23.6329 38.2961C23.699 38.3319 23.7691 38.3574 23.8406 38.3724ZM43.4977 9.34248V8.6127C43.4977 8.3439 43.3537 8.0943 43.1137 7.9695C36.7681 4.6671 30.3457 4.6095 24.0001 7.7967C17.6545 4.6095 11.2225 4.6671 4.88649 7.9695C4.65609 8.0943 4.50249 8.3439 4.50249 8.6127V9.34248H3.60834C2.14914 9.34248 0.95874 10.5329 0.95874 11.9921V40.1297C0.95874 41.1857 1.50594 42.1169 2.42754 42.6353C3.33954 43.1537 4.42434 43.1441 5.32674 42.5969L7.42914 41.3297C12.3731 38.3441 16.8467 38.3441 21.8003 41.3297L23.6339 42.4337C23.8547 42.5681 24.1427 42.5681 24.3731 42.4337L26.2067 41.3297C31.1507 38.3441 35.6243 38.3441 40.5779 41.3297L42.6803 42.5969C43.1411 42.8753 43.6499 43.0097 44.1587 43.0097C44.6483 43.0097 45.1379 42.8849 45.5795 42.6353C46.4915 42.1169 47.0387 41.1761 47.0387 40.1297V11.9921C47.0387 10.5329 45.8483 9.34248 44.3891 9.34248H43.4977ZM23.2681 9.04964C17.5151 6.19199 11.6921 6.19354 5.94249 9.0543V36.4335C8.82249 34.8975 11.7217 34.1295 14.6113 34.1295C17.5051 34.1295 20.3907 34.8963 23.2681 36.4299V9.04964ZM42.0553 36.4322C36.2956 33.3643 30.4739 33.3573 24.7177 36.4366V9.06408C27.5336 7.65849 30.3679 6.9412 33.2037 6.91219C33.1492 7.0132 33.1181 7.1282 33.1181 7.24959V20.2768C33.1181 20.5552 33.2813 20.8144 33.5405 20.9296C33.7997 21.0448 34.1069 21.0064 34.3181 20.8144L37.0829 18.3568L39.8477 20.8144C39.9821 20.9296 40.1549 20.9968 40.3277 20.9968C40.4237 20.9968 40.5293 20.9776 40.6253 20.9296C40.8845 20.8144 41.0477 20.5552 41.0477 20.2768V8.59152C41.3838 8.7393 41.7197 8.89681 42.0553 9.06408V36.4322ZM34.4898 6.94623C36.1974 7.05407 37.9046 7.41147 39.6077 8.01842V18.6832L37.5629 16.8688C37.2845 16.6288 36.8717 16.6288 36.6029 16.8688L34.5581 18.6832V7.24959C34.5581 7.14163 34.5336 7.03873 34.4898 6.94623ZM10.9149 24.491C10.9149 25.6814 11.8845 26.651 13.0749 26.651C14.2653 26.651 15.2349 25.6814 15.2637 24.491V22.4942C15.8205 22.4654 16.3773 22.3694 16.9245 22.1966C18.5373 21.6782 19.8429 20.5742 20.6205 19.0766C21.3885 17.579 21.5325 15.8702 21.0237 14.267C20.5053 12.6542 19.4013 11.3486 17.9037 10.571C16.4061 9.803 14.6973 9.659 13.0845 10.1678C11.4717 10.6862 10.1661 11.7902 9.38854 13.2878C9.11974 13.8062 9.07174 14.3918 9.24454 14.939C9.41734 15.4862 9.80134 15.9374 10.3101 16.1966C10.8189 16.4654 11.4045 16.5134 11.9517 16.3406C12.4989 16.1678 12.9501 15.7934 13.2189 15.275C13.4589 14.795 13.8717 14.4494 14.3805 14.2862C14.8989 14.123 15.4365 14.1614 15.9069 14.411C16.3773 14.651 16.7229 15.0638 16.8861 15.5726C17.0493 16.0718 17.0013 16.619 16.7613 17.0894C16.5117 17.5694 16.0989 17.915 15.5901 18.0782C15.0813 18.2414 14.5437 18.1934 14.0733 17.9534C13.4013 17.6078 12.5949 17.6366 11.9517 18.0302C11.3085 18.4238 10.9149 19.1246 10.9149 19.8734V24.491ZM12.7005 19.259C12.8157 19.1918 12.9405 19.1534 13.0749 19.1534C13.1901 19.1534 13.3053 19.1822 13.4013 19.2398C14.2173 19.6622 15.1485 19.739 16.0221 19.4606C16.8957 19.1822 17.6061 18.5774 18.0285 17.7614C18.4509 16.9454 18.5277 16.0142 18.2493 15.1406C17.9613 14.267 17.3661 13.5566 16.5501 13.1342C15.7341 12.7118 14.8029 12.635 13.9293 12.9134C13.0557 13.1918 12.3453 13.7966 11.9229 14.6126C11.8365 14.7854 11.6829 14.9102 11.5005 14.9678C11.3181 15.0254 11.1261 15.0062 10.9533 14.9198C10.7805 14.8334 10.6557 14.6798 10.5981 14.4974C10.5405 14.315 10.5597 14.123 10.6461 13.9502C11.2413 12.7886 12.2589 11.9342 13.4973 11.5406C14.7357 11.147 16.0605 11.2622 17.2125 11.8574C18.3741 12.4526 19.2285 13.4702 19.6221 14.7086C20.0157 15.947 19.9005 17.2622 19.3053 18.4238C18.7101 19.5854 17.6925 20.4398 16.4541 20.8334C15.8397 21.035 15.1965 21.1118 14.5725 21.0542C14.3709 21.035 14.1693 21.1022 14.0253 21.2366C13.8813 21.371 13.7949 21.563 13.7949 21.7646V24.491C13.7949 24.8846 13.4685 25.211 13.0749 25.211C12.6813 25.211 12.3549 24.8846 12.3549 24.491V19.8734C12.3549 19.6238 12.4893 19.3934 12.7005 19.259ZM12.8639 32.9677C11.3471 32.9677 10.1087 31.7293 10.1087 30.2125C10.1087 28.6957 11.3471 27.4573 12.8639 27.4573C14.3807 27.4573 15.6191 28.6957 15.6191 30.2125C15.6191 31.7293 14.3903 32.9677 12.8639 32.9677ZM12.8639 28.8973C12.1343 28.8973 11.5487 29.4829 11.5487 30.2125C11.5487 30.9421 12.1343 31.5277 12.8639 31.5277C13.5935 31.5277 14.1791 30.9421 14.1791 30.2125C14.1791 29.4829 13.5935 28.8973 12.8639 28.8973ZM30.1912 24.952H40.0792C40.4728 24.952 40.7992 24.6256 40.7992 24.232C40.7992 23.8384 40.4728 23.512 40.0792 23.512H30.1912C29.7976 23.512 29.4712 23.8384 29.4712 24.232C29.4712 24.6256 29.7976 24.952 30.1912 24.952ZM27.8879 24.952H26.6975C26.3039 24.952 25.9775 24.6256 25.9775 24.232C25.9775 23.8384 26.3039 23.512 26.6975 23.512H27.8879C28.2815 23.512 28.6079 23.8384 28.6079 24.232C28.6079 24.6256 28.2911 24.952 27.8879 24.952ZM30.1912 28.5809H40.0792C40.4728 28.5809 40.7992 28.2545 40.7992 27.8609C40.7992 27.4673 40.4728 27.1409 40.0792 27.1409H30.1912C29.7976 27.1409 29.4712 27.4673 29.4712 27.8609C29.4712 28.2545 29.7976 28.5809 30.1912 28.5809ZM27.8879 28.5809H26.6975C26.3039 28.5809 25.9775 28.2545 25.9775 27.8609C25.9775 27.4673 26.3039 27.1409 26.6975 27.1409H27.8879C28.2815 27.1409 28.6079 27.4673 28.6079 27.8609C28.6079 28.2545 28.2911 28.5809 27.8879 28.5809ZM30.1912 32.2094H40.0792C40.4728 32.2094 40.7992 31.883 40.7992 31.4894C40.7992 31.0958 40.4728 30.7694 40.0792 30.7694H30.1912C29.7976 30.7694 29.4712 31.0958 29.4712 31.4894C29.4712 31.883 29.7976 32.2094 30.1912 32.2094ZM27.8879 32.2094H26.6975C26.3039 32.2094 25.9775 31.883 25.9775 31.4894C25.9775 31.0958 26.3039 30.7694 26.6975 30.7694H27.8879C28.2815 30.7694 28.6079 31.0958 28.6079 31.4894C28.6079 31.883 28.2911 32.2094 27.8879 32.2094ZM26.6975 11.9536H31.1039C31.5071 11.9536 31.8239 11.6272 31.8239 11.2336C31.8239 10.84 31.4975 10.5136 31.1039 10.5136H26.6975C26.3039 10.5136 25.9775 10.84 25.9775 11.2336C25.9775 11.6272 26.3039 11.9536 26.6975 11.9536ZM31.1039 15.2751H26.6975C26.3039 15.2751 25.9775 14.9487 25.9775 14.5551C25.9775 14.1615 26.3039 13.8351 26.6975 13.8351H31.1039C31.4975 13.8351 31.8239 14.1615 31.8239 14.5551C31.8239 14.9487 31.5071 15.2751 31.1039 15.2751ZM26.6975 18.5965H31.1039C31.5071 18.5965 31.8239 18.2701 31.8239 17.8765C31.8239 17.4829 31.4975 17.1565 31.1039 17.1565H26.6975C26.3039 17.1565 25.9775 17.4829 25.9775 17.8765C25.9775 18.2701 26.3039 18.5965 26.6975 18.5965Z" fill="#F175B9"/>
</svg>
