<svg width="48" height="49" viewBox="0 0 48 49" fill="none" xmlns="http://www.w3.org/2000/svg">
<g clip-path="url(#clip0_0_1793)">
<path fill-rule="evenodd" clip-rule="evenodd" d="M42.3749 1.63818H30.2556C29.3303 0.731433 28.11 0.231934 26.8125 0.231934C25.4747 0.231934 24.2607 0.76912 23.3727 1.63818H11.25C9.31142 1.63818 7.73436 3.21524 7.73436 5.1538V36.9819H2.8125C2.42409 36.982 2.10938 37.2967 2.10938 37.685C2.10947 39.0421 2.66128 40.2724 3.55265 41.1636C4.44384 42.0547 5.67449 42.6069 7.03124 42.6069H7.73436V44.7162C7.73446 45.6552 8.10008 46.5382 8.76411 47.2022C9.42814 47.8662 10.311 48.2318 11.25 48.2318H42.3749C44.3135 48.2317 45.8905 46.6547 45.8906 44.7161V5.1538C45.8905 3.21524 44.3135 1.63837 42.3749 1.63818ZM10.5469 36.9819H9.14061V5.1538C9.14061 3.99074 10.0869 3.04443 11.25 3.04443H22.3665C22.1582 3.48168 22.0129 3.95436 21.9416 4.45058L11.25 4.45068C10.8617 4.45068 10.5469 4.76549 10.5469 5.1538V36.9819ZM22.5937 8.66942C22.9821 8.66942 23.2968 8.35461 23.2968 7.96629V5.1538C23.2968 3.21533 24.874 1.63818 26.8125 1.63818C27.7818 1.63818 28.6605 2.03231 29.2973 2.66896C29.9339 3.30552 30.3282 4.18452 30.3282 5.15361L30.3281 7.96611C30.3281 8.15267 30.4021 8.33145 30.534 8.46336C30.6659 8.59526 30.8447 8.66942 31.0312 8.66942H32.4374C33.354 8.66942 34.1362 9.25723 34.4263 10.0757H19.1987C19.4887 9.25723 20.2708 8.66942 21.1875 8.66942H22.5937ZM21.8907 5.85692V7.26317H21.1876C19.249 7.26317 17.6719 8.84032 17.6719 10.7789C17.6719 10.973 17.7507 11.1488 17.8779 11.276C18.0051 11.4033 18.1809 11.4819 18.3751 11.482H35.25C35.6384 11.4819 35.9532 11.1672 35.9532 10.7789C35.953 8.84023 34.376 7.26326 32.4374 7.26317H31.7343L31.7344 5.85702L41.6719 5.85692V37.685C41.6719 38.6241 41.3063 39.5068 40.6421 40.1709C39.9781 40.835 39.0953 41.2007 38.1562 41.2006C36.2177 41.2009 34.6407 39.6236 34.6406 37.685C34.6406 37.2968 34.3258 36.982 33.9374 36.9819H11.9532V5.85692H21.8907ZM7.03133 41.2007C5.33334 41.2005 3.91284 39.991 3.58631 38.3882H33.2844C33.4416 39.4825 33.9586 40.4619 34.7149 41.2007H7.03133ZM44.4843 44.7162C44.4843 45.8794 43.5381 46.8256 42.3749 46.8256H11.25C10.6865 46.8256 10.1569 46.6063 9.75842 46.2079C9.35999 45.8094 9.14061 45.2798 9.14061 44.7163V42.6069L38.1562 42.6069C39.4708 42.6069 40.7068 42.095 41.6366 41.1654C42.5663 40.2356 43.0781 38.9996 43.0781 37.685V5.1538C43.078 4.96724 43.004 4.78846 42.8722 4.65655C42.7403 4.52474 42.5615 4.45068 42.3749 4.45058L31.6843 4.45068C31.6145 3.96008 31.4723 3.48702 31.2621 3.04452H42.3749C43.5379 3.04443 44.4844 3.99064 44.4843 5.15389V44.7162ZM34.4346 17.6978L31.6221 20.5103C31.3475 20.785 30.9024 20.785 30.6278 20.5103L29.2216 19.1042C28.947 18.8296 28.947 18.3844 29.2216 18.1098C29.4962 17.8352 29.9413 17.8352 30.2159 18.1098L31.125 19.0188L33.4403 16.7035C33.7149 16.4289 34.16 16.4289 34.4346 16.7035C34.7093 16.9781 34.7093 17.4232 34.4346 17.6978ZM31.125 24.6438L33.4402 22.3285C33.7148 22.0539 34.1599 22.0539 34.4347 22.3284C34.7094 22.603 34.7094 23.0481 34.4347 23.3227L31.6222 26.1352C31.3476 26.4098 30.9025 26.4098 30.6279 26.1352L29.2216 24.729C28.947 24.4544 28.947 24.0093 29.2216 23.7347C29.4962 23.4601 29.9414 23.4601 30.216 23.7347L31.125 24.6438ZM31.6221 31.7604L34.4346 28.9479C34.7092 28.6732 34.7092 28.2281 34.4346 27.9535C34.16 27.6789 33.7149 27.6789 33.4403 27.9535L31.125 30.2689L30.2159 29.3598C29.9413 29.0852 29.4962 29.0852 29.2216 29.3598C28.947 29.6343 28.947 30.0795 29.2216 30.3541L30.6278 31.7604C30.9024 32.035 31.3475 32.035 31.6221 31.7604ZM26.9062 24.9352H18.375C18.1808 24.9351 18.0051 24.8563 17.8778 24.7291C17.7506 24.602 17.6719 24.4261 17.6719 24.2319C17.6719 23.8436 17.9866 23.5289 18.375 23.5288H26.9062C27.2945 23.5289 27.6093 23.8436 27.6094 24.2319C27.6094 24.6203 27.2947 24.9351 26.9062 24.9352ZM18.375 19.3101H26.9062C27.2947 19.31 27.6094 18.9952 27.6094 18.6069C27.6093 18.2186 27.2946 17.9038 26.9062 17.9038H18.375C17.9866 17.9038 17.6719 18.2186 17.6719 18.6069C17.672 18.8011 17.7506 18.9769 17.8778 19.1041C18.0051 19.2313 18.1808 19.31 18.375 19.3101ZM18.375 29.1538H26.9062C27.2946 29.1539 27.6093 29.4686 27.6094 29.8569C27.6094 30.2452 27.2947 30.5601 26.9062 30.5601H18.375C18.1808 30.5601 18.0051 30.4813 17.8778 30.3541C17.7506 30.2269 17.672 30.0511 17.6719 29.8569C17.6719 29.4686 17.9866 29.1538 18.375 29.1538ZM28.922 5.1539C28.922 6.31696 27.9757 7.26318 26.8126 7.26328C26.2311 7.26318 25.7036 7.02665 25.3218 6.64471C24.9398 6.26268 24.7032 5.73534 24.7031 5.15381C24.7031 3.99065 25.6493 3.04443 26.8125 3.04443C27.9755 3.04453 28.9219 3.99065 28.922 5.1539ZM26.8125 4.45068C26.6247 4.45068 26.4482 4.52371 26.3153 4.65656C26.1825 4.7894 26.1094 4.96603 26.1095 5.1539C26.1094 5.34168 26.1825 5.51821 26.3153 5.65106C26.4482 5.7839 26.6248 5.85703 26.8126 5.85693C27.0004 5.85693 27.1768 5.78381 27.3097 5.65096C27.4425 5.51812 27.5156 5.34159 27.5156 5.15381C27.5156 4.96603 27.4425 4.7894 27.3097 4.65656C27.1769 4.52381 27.0003 4.45068 26.8125 4.45068Z" fill="#F175B9"/>
</g>
<defs>
<clipPath id="clip0_0_1793">
<rect width="48" height="48" fill="white" transform="translate(0 0.231934)"/>
</clipPath>
</defs>
</svg>
