<svg width="48" height="48" viewBox="0 0 48 48" fill="none" xmlns="http://www.w3.org/2000/svg">
<path d="M20.645 26.0459L18.8251 24.2304L20.6447 22.4152C22.2807 20.7846 23.5524 19.0365 24.4244 17.2195C24.4725 17.1194 24.4944 17.0088 24.4881 16.898C24.4817 16.7872 24.4474 16.6798 24.3883 16.5858C24.3292 16.4919 24.2472 16.4145 24.15 16.3608C24.0529 16.3072 23.9437 16.2791 23.8327 16.2791H9.08878C8.97782 16.2791 8.86866 16.3072 8.77152 16.3608C8.67438 16.4145 8.59243 16.4918 8.53332 16.5858C8.47421 16.6797 8.43987 16.787 8.43353 16.8978C8.42718 17.0086 8.44903 17.1192 8.49703 17.2192C9.3689 19.0363 10.6408 20.7844 12.2764 22.4145L14.0943 24.2301L12.2765 26.0458C8.48568 29.8307 6.72797 34.1171 7.05215 38.7857C7.06362 38.9515 7.13759 39.1068 7.25912 39.2202C7.38065 39.3336 7.54068 39.3966 7.7069 39.3966H25.2145C25.3808 39.3967 25.5408 39.3336 25.6624 39.2202C25.7839 39.1068 25.8579 38.9515 25.8694 38.7857C26.1938 34.1174 24.4358 29.831 20.645 26.0459ZM24.589 38.084H8.3324C8.22525 34.0463 9.86231 30.3122 13.2041 26.9747L15.4869 24.6945C15.548 24.6335 15.5964 24.5611 15.6295 24.4814C15.6625 24.4017 15.6795 24.3163 15.6795 24.23C15.6795 24.1438 15.6625 24.0583 15.6295 23.9786C15.5964 23.8989 15.548 23.8265 15.4869 23.7656L13.2037 21.485C12.0245 20.3284 11.0057 19.0189 10.1746 17.5916H22.7469C21.9158 19.019 20.8969 20.3286 19.7177 21.4852L17.4322 23.7653C17.371 23.8263 17.3225 23.8987 17.2894 23.9784C17.2563 24.0582 17.2393 24.1437 17.2393 24.23C17.2393 24.3164 17.2563 24.4019 17.2894 24.4816C17.3225 24.5614 17.371 24.6338 17.4322 24.6947L19.7175 26.9747C23.0593 30.3118 24.6962 34.0464 24.589 38.084ZM29.7881 41.3048H28.7883C29.3796 38.1313 29.2008 35.049 28.2513 32.1367C27.3321 29.3167 25.6935 26.6598 23.3763 24.2304C25.7135 21.78 27.3599 19.0983 28.2745 16.2511C29.2032 13.3598 29.3754 10.303 28.7887 7.1559H29.7878C30.1991 7.1559 30.6064 7.07489 30.9864 6.9175C31.3664 6.76011 31.7116 6.52941 32.0024 6.23859C32.2933 5.94776 32.524 5.60251 32.6813 5.22253C32.8387 4.84254 32.9198 4.43528 32.9198 4.024C32.9198 3.61271 32.8387 3.20545 32.6813 2.82547C32.524 2.44549 32.2933 2.10023 32.0024 1.8094C31.7116 1.51858 31.3664 1.28789 30.9864 1.13049C30.6064 0.973099 30.1991 0.89209 29.7878 0.89209H3.13069C2.30005 0.89209 1.50344 1.22206 0.916093 1.8094C0.328747 2.39675 -0.0012207 3.19336 -0.0012207 4.024C-0.0012207 4.85463 0.328747 5.65124 0.916093 6.23859C1.50344 6.82594 2.30005 7.1559 3.13069 7.1559H4.13259C3.54272 10.3231 3.72009 13.3988 4.66397 16.3059C5.58206 19.1327 7.22278 21.796 9.54497 24.2308C7.23628 26.6514 5.60081 29.2989 4.67981 32.1081C3.72215 35.0292 3.54028 38.1215 4.13344 41.305H3.13031C2.30229 41.3095 1.50972 41.6416 0.925812 42.2287C0.341905 42.8159 0.014137 43.6102 0.014137 44.4383C0.014137 45.2663 0.341905 46.0607 0.925812 46.6478C1.50972 47.2349 2.30229 47.567 3.13031 47.5715H29.7881C30.6161 47.567 31.4087 47.2349 31.9926 46.6478C32.5765 46.0607 32.9043 45.2663 32.9043 44.4383C32.9043 43.6102 32.5765 42.8159 31.9926 42.2287C31.4087 41.6416 30.6161 41.3095 29.7881 41.305V41.3048ZM1.31259 4.02268C1.31311 3.54069 1.50484 3.07859 1.8457 2.73781C2.18655 2.39702 2.64869 2.20539 3.13069 2.20496H29.7881C30.2706 2.20496 30.7332 2.39661 31.0744 2.73775C31.4155 3.07888 31.6072 3.54156 31.6072 4.024C31.6072 4.50643 31.4155 4.96911 31.0744 5.31025C30.7332 5.65138 30.2706 5.84303 29.7881 5.84303H3.13069C2.64834 5.84226 2.18601 5.65015 1.84515 5.30888C1.5043 4.9676 1.31277 4.50503 1.31259 4.02268ZM10.9262 24.6946C10.9873 24.6336 11.0357 24.5612 11.0688 24.4815C11.1019 24.4018 11.1189 24.3163 11.1189 24.23C11.1189 24.1437 11.1019 24.0583 11.0688 23.9786C11.0357 23.8989 10.9873 23.8265 10.9262 23.7655C6.07247 18.9197 4.23872 13.3322 5.46984 7.1559H27.4501C28.6836 13.3309 26.8508 18.9179 21.9949 23.7659C21.9338 23.8268 21.8853 23.8992 21.8523 23.9789C21.8192 24.0587 21.8022 24.1441 21.8022 24.2304C21.8022 24.3167 21.8192 24.4022 21.8523 24.4819C21.8853 24.5616 21.9338 24.634 21.9949 24.6949C26.8489 29.5412 28.6827 35.1293 27.4511 41.3048H5.46956C4.23853 35.1284 6.07322 29.5405 10.9266 24.6949L10.9262 24.6946ZM29.7877 46.2581H3.13069C2.65015 46.2546 2.19047 46.0613 1.8519 45.7203C1.51332 45.3793 1.32331 44.9182 1.32331 44.4377C1.32331 43.9572 1.51332 43.4961 1.8519 43.1551C2.19047 42.8141 2.65015 42.6208 3.13069 42.6173H29.7881C30.2687 42.6208 30.7283 42.8141 31.0669 43.1551C31.4055 43.4961 31.5955 43.9572 31.5955 44.4377C31.5955 44.9182 31.4055 45.3793 31.0669 45.7203C30.7283 46.0613 30.2687 46.2546 29.7881 46.2581H29.7877ZM38.3453 14.5755C36.4358 14.5755 34.5692 15.1417 32.9815 16.2026C31.3938 17.2634 30.1563 18.7713 29.4255 20.5355C28.6948 22.2996 28.5036 24.2409 28.8761 26.1137C29.2486 27.9865 30.1681 29.7068 31.5183 31.0571C32.8686 32.4073 34.5889 33.3269 36.4617 33.6994C38.3345 34.072 40.2757 33.8808 42.0399 33.1501C43.8041 32.4194 45.312 31.1819 46.3729 29.5942C47.4338 28.0066 48.0001 26.1399 48.0001 24.2304C47.9973 21.6707 46.9792 19.2166 45.1692 17.4065C43.3592 15.5965 40.9051 14.5783 38.3453 14.5755ZM38.3453 32.5721C36.6955 32.572 35.0827 32.0827 33.7109 31.166C32.3392 30.2494 31.27 28.9465 30.6387 27.4222C30.0074 25.8979 29.8423 24.2206 30.1642 22.6025C30.4861 20.9844 31.2807 19.498 32.4473 18.3314C33.614 17.1648 35.1004 16.3704 36.7186 16.0486C38.3367 15.7268 40.014 15.892 41.5382 16.5234C43.0625 17.1548 44.3653 18.2241 45.2818 19.5959C46.1984 20.9677 46.6876 22.5805 46.6876 24.2304C46.6851 26.4421 45.8054 28.5625 44.2414 30.1264C42.6775 31.6903 40.557 32.5699 38.3453 32.5723V32.5721ZM41.9409 24.2302C41.9409 24.4043 41.8718 24.5712 41.7487 24.6943C41.6257 24.8173 41.4587 24.8865 41.2847 24.8865H38.3453C38.1713 24.8865 38.0044 24.8173 37.8813 24.6943C37.7582 24.5712 37.6891 24.4043 37.6891 24.2302V19.5001C37.6891 19.326 37.7582 19.1591 37.8813 19.036C38.0044 18.913 38.1713 18.8438 38.3453 18.8438C38.5194 18.8438 38.6863 18.913 38.8094 19.036C38.9325 19.1591 39.0016 19.326 39.0016 19.5001V23.574H41.2843C41.3705 23.5739 41.4559 23.5909 41.5356 23.6238C41.6153 23.6568 41.6877 23.7051 41.7487 23.7661C41.8096 23.8271 41.858 23.8995 41.891 23.9791C41.924 24.0588 41.941 24.1442 41.9409 24.2304V24.2302ZM38.3453 16.8133C36.8781 16.8135 35.4439 17.2489 34.224 18.0643C33.0042 18.8796 32.0536 20.0384 31.4923 21.3941C30.9311 22.7498 30.7844 24.2414 31.0709 25.6804C31.3574 27.1194 32.0642 28.4412 33.1019 29.4785C34.1396 30.5158 35.4616 31.2221 36.9007 31.5081C38.3398 31.794 39.8314 31.6469 41.1869 31.0851C42.5423 30.5234 43.7008 29.5723 44.5157 28.3522C45.3306 27.132 45.7655 25.6977 45.7652 24.2304C45.7626 22.2636 44.98 20.3781 43.589 18.9876C42.1979 17.5971 40.3122 16.8151 38.3453 16.8133ZM38.3453 30.3374C37.1379 30.3371 35.9576 29.9788 34.9537 29.3078C33.9498 28.6368 33.1675 27.6833 32.7055 26.5676C32.2436 25.452 32.1228 24.2245 32.3584 23.0402C32.594 21.856 33.1755 20.7682 34.0293 19.9144C34.8831 19.0606 35.9709 18.4791 37.1552 18.2434C38.3394 18.0078 39.567 18.1286 40.6826 18.5906C41.7982 19.0525 42.7518 19.8349 43.4228 20.8388C44.0938 21.8426 44.4521 23.0229 44.4523 24.2304C44.4505 25.8495 43.8065 27.4018 42.6616 28.5467C41.5167 29.6915 39.9644 30.3355 38.3453 30.3374Z" fill="#F175B9"/>
</svg>
