<svg width="43" height="49" viewBox="0 0 43 49" fill="none" xmlns="http://www.w3.org/2000/svg">
<path fill-rule="evenodd" clip-rule="evenodd" d="M23.2 36.232H21.32C21.1999 36.2315 21.0848 36.1834 21 36.0984L20.2001 35.2984C19.7339 34.8317 19.0718 34.6173 18.4205 34.722C17.7691 34.8267 17.2078 35.2379 16.9113 35.8272L16.8658 35.9152C16.8005 36.0465 16.6761 36.1383 16.5315 36.1619C16.3869 36.1855 16.2398 36.1381 16.1362 36.0344L15.4002 35.2983C14.934 34.8316 14.2719 34.6172 13.6206 34.7219C12.9692 34.8266 12.4079 35.2378 12.1114 35.8271L12.0659 35.9151C12.0006 36.0464 11.8762 36.1382 11.7316 36.1618C11.587 36.1854 11.4399 36.138 11.3363 36.0343C10.951 35.647 10.4266 35.4301 9.88027 35.4318H5.60002C5.15817 35.4318 4.80005 35.7901 4.80005 36.2318C4.80005 36.6736 5.15827 37.0318 5.60002 37.0318H9.87999C10.0001 37.0323 10.1152 37.0803 10.2 37.1654C10.6662 37.6322 11.3282 37.8466 11.9795 37.7418C12.6309 37.6371 13.1923 37.2259 13.4887 36.6366L13.5343 36.5486C13.5995 36.4173 13.7239 36.3256 13.8685 36.3019C14.0131 36.2783 14.1602 36.3257 14.2638 36.4294L14.9999 37.1655C15.4661 37.6323 16.1281 37.8467 16.7794 37.7419C17.4308 37.6372 17.9922 37.226 18.2886 36.6367L18.3342 36.5487C18.3994 36.4174 18.5238 36.3257 18.6684 36.302C18.8131 36.2784 18.9601 36.3258 19.0637 36.4295L19.8637 37.2295C20.249 37.6168 20.7734 37.8337 21.3197 37.8319H23.1997C23.6415 37.8319 23.9997 37.4738 23.9997 37.032C23.9997 36.5901 23.6418 36.232 23.2 36.232Z" fill="#F175B9"/>
<path d="M41.4508 18.741L40.9228 18.4738L41.19 17.9467L42.1324 16.0835C42.8843 14.6802 42.3564 12.9331 40.9532 12.181C39.5499 11.4291 37.8028 11.957 37.0508 13.3602V8.33298C37.0508 6.5657 35.6181 5.13301 33.8508 5.13301H33.0508V2.73301C33.0508 1.40757 31.9763 0.333008 30.6508 0.333008C29.3254 0.333008 28.2508 1.40757 28.2508 2.73301V5.13301H25.0508V2.73301C25.0508 1.40757 23.9763 0.333008 22.6509 0.333008C21.3254 0.333008 20.2509 1.40757 20.2509 2.73301V5.13301H17.0509V2.73301C17.0509 1.40757 15.9763 0.333008 14.6509 0.333008C13.3254 0.333008 12.2509 1.40757 12.2509 2.73301V5.13301H9.05091V2.73301C9.05091 1.40757 7.97635 0.333008 6.65091 0.333008C5.32548 0.333008 4.25091 1.40757 4.25091 2.73301V5.13301H3.45095C1.68366 5.13301 0.250977 6.5657 0.250977 8.33298V45.1329C0.250977 46.9002 1.68366 48.3329 3.45095 48.3329H33.851C35.6183 48.3329 37.0509 46.9002 37.0509 45.1329V26.1266L40.1981 19.9018L40.7261 20.169C41.0172 20.3169 41.1339 20.6725 40.9869 20.9642L38.7894 25.3106C38.5903 25.7048 38.7482 26.1856 39.1421 26.385C39.2536 26.4419 39.377 26.4715 39.5021 26.4714C39.8044 26.4719 40.081 26.3019 40.2174 26.0322L42.4149 21.6858C42.9603 20.6064 42.529 19.289 41.4508 18.741ZM31.3708 33.8194L29.058 35.5329L29.0709 32.6529L37.1004 16.7769L38.2493 17.3577L39.3981 17.9385L31.3708 33.8194ZM38.4028 14.2002C38.6377 13.7354 39.1294 13.4578 39.6488 13.4971C40.168 13.5363 40.6125 13.8846 40.7749 14.3795C40.883 14.7036 40.8564 15.0575 40.7013 15.3619L40.1197 16.5107L38.9709 15.9331L37.8229 15.3523L38.4028 14.2002ZM29.8509 2.73301C29.8509 2.29116 30.209 1.93304 30.6508 1.93304C31.0927 1.93304 31.4508 2.29126 31.4508 2.73301V9.13304C31.4508 9.57488 31.0927 9.93301 30.6508 9.93301C30.209 9.93301 29.8509 9.57479 29.8509 9.13304V2.73301ZM21.8509 2.73301C21.8509 2.29116 22.209 1.93304 22.6509 1.93304C23.0927 1.93304 23.4508 2.29126 23.4508 2.73301V9.13304C23.4508 9.57488 23.0926 9.93301 22.6509 9.93301C22.2091 9.93301 21.8509 9.57479 21.8509 9.13304V2.73301ZM13.8508 2.73301C13.8508 2.29116 14.209 1.93304 14.6508 1.93304C15.0925 1.93304 15.4508 2.29126 15.4508 2.73301V9.13304C15.4508 9.57488 15.0925 9.93301 14.6508 9.93301C14.209 9.93301 13.8508 9.57479 13.8508 9.13304V2.73301ZM5.85085 2.73301C5.85085 2.29116 6.20907 1.93304 6.65082 1.93304C7.09257 1.93304 7.45079 2.29126 7.45079 2.73301V9.13304C7.45079 9.57488 7.09257 9.93301 6.65082 9.93301C6.20907 9.93301 5.85085 9.57479 5.85085 9.13304V2.73301ZM35.4508 45.133C35.4508 46.0167 34.7345 46.7331 33.8508 46.7331H3.45085C2.56716 46.7331 1.85082 46.0167 1.85082 45.133V8.33298C1.85082 7.44929 2.56716 6.73295 3.45085 6.73295H4.25082V9.13295C4.25082 10.4584 5.32538 11.5329 6.65082 11.5329C7.97626 11.5329 9.05082 10.4584 9.05082 9.13295V6.73295H12.2508V9.13295C12.2508 10.4584 13.3254 11.5329 14.6508 11.5329C15.9762 11.5329 17.0508 10.4584 17.0508 9.13295V6.73295H20.2508V9.13295C20.2508 10.4584 21.3253 11.5329 22.6508 11.5329C23.9762 11.5329 25.0508 10.4584 25.0508 9.13295V6.73295H28.2507V9.13295C28.2507 10.4584 29.3253 11.5329 30.6507 11.5329C31.9762 11.5329 33.0507 10.4584 33.0507 9.13295V6.73295H33.8507C34.7344 6.73295 35.4507 7.44929 35.4507 8.33298V16.493L27.5579 32.105C27.5016 32.2155 27.472 32.3378 27.4715 32.4618L27.4549 36.333H25.8509C25.4091 36.333 25.0509 36.6911 25.0509 37.133C25.0509 37.5748 25.4092 37.9329 25.8509 37.9329H28.1877C28.1997 37.9329 28.2101 37.9266 28.2221 37.9257C28.2341 37.9249 28.2414 37.9329 28.2509 37.9329C28.424 37.9329 28.5924 37.8768 28.7309 37.7729L32.4765 34.9889C32.5771 34.915 32.6592 34.8189 32.7165 34.7081L35.4509 29.2929V45.133H35.4508Z" fill="#F175B9"/>
<path fill-rule="evenodd" clip-rule="evenodd" d="M5.60002 15.432H32.8C33.2418 15.432 33.6 15.0738 33.6 14.632C33.6 14.1903 33.2418 13.832 32.8 13.832H5.60002C5.15817 13.832 4.80005 14.1902 4.80005 14.632C4.80005 15.0738 5.15817 15.432 5.60002 15.432Z" fill="#F175B9"/>
<path fill-rule="evenodd" clip-rule="evenodd" d="M5.60002 21.0321H31.368C31.8099 21.0321 32.168 20.6738 32.168 20.2321C32.168 19.7903 31.8099 19.4321 31.368 19.4321H5.60002C5.15817 19.4321 4.80005 19.7903 4.80005 20.2321C4.80005 20.6739 5.15817 21.0321 5.60002 21.0321Z" fill="#F175B9"/>
<path fill-rule="evenodd" clip-rule="evenodd" d="M5.60002 26.6322H28.5361C28.9779 26.6322 29.336 26.274 29.336 25.8322C29.336 25.3904 28.9779 25.0322 28.5361 25.0322H5.60002C5.15817 25.0322 4.80005 25.3904 4.80005 25.8322C4.80005 26.274 5.15817 26.6322 5.60002 26.6322Z" fill="#F175B9"/>
<path fill-rule="evenodd" clip-rule="evenodd" d="M5.60002 32.2318H25.7041C26.1459 32.2318 26.504 31.8736 26.504 31.4318C26.504 30.99 26.1459 30.6318 25.7041 30.6318H5.60002C5.15817 30.6318 4.80005 30.99 4.80005 31.4318C4.80005 31.8736 5.15817 32.2318 5.60002 32.2318Z" fill="#F175B9"/>
</svg>
