<svg width="1440" height="162" viewBox="0 0 1440 162" fill="none" xmlns="http://www.w3.org/2000/svg">
<path d="M311.41 10.0883C158.219 10.0883 54.008 109.863 0.00585938 77.0883V160.5H1440V89.5883C1331.01 89.5883 1302.5 0.0882568 1127 0.0882568C991.995 0.0882568 932.711 83.5883 717.24 83.5883C501.768 83.5883 464.6 10.0883 311.41 10.0883Z" fill="#3DF7FF"/>
<path d="M311.41 29.5883C158.219 29.5883 128.586 113.588 0.00585935 113.588L0.00195312 161.905L1439.99 162L1440 113.588C1331.01 113.588 1296.5 46.6626 1109.51 46.6626C990 46.6626 932.711 100.588 717.24 100.588C501.768 100.588 464.6 29.5883 311.41 29.5883Z" fill="#0C3F3D"/>
</svg>
