<svg width="1440" height="162" viewBox="0 0 1440 162" fill="none" xmlns="http://www.w3.org/2000/svg">
<path d="M311.41 151.912C158.219 151.912 54.008 52.1373 0.00585938 84.9116V1.5H1440V72.4116C1331.01 72.4116 1302.5 161.912 1127 161.912C991.995 161.912 932.711 78.4116 717.24 78.4116C501.768 78.4116 464.6 151.912 311.41 151.912Z" fill="#3DF7FF"/>
<path d="M311.41 132.412C158.219 132.412 128.586 48.4116 0.00585935 48.4116L0.00195312 0.0948747L1439.99 0L1440 48.4116C1331.01 48.4116 1296.5 115.337 1109.51 115.337C990 115.337 932.711 61.4116 717.24 61.4116C501.768 61.4116 464.6 132.412 311.41 132.412Z" fill="#0C3F3D"/>
</svg>
