<svg width="1440" height="163" viewBox="0 0 1440 163" fill="none" xmlns="http://www.w3.org/2000/svg">
<path d="M311.408 10.3755C158.216 10.3755 54.0044 110.15 0.00195312 77.3755V160.787H1440V89.8755C1331.01 89.8755 1302.5 0.375488 1127 0.375488C991.996 0.375488 932.712 83.8755 717.24 83.8755C501.767 83.8755 464.599 10.3755 311.408 10.3755Z" fill="#327B7B"/>
<path d="M311.408 29.8755C158.216 29.8755 128.582 113.875 0.00195312 113.875L-0.00195312 162.192L1440 162.287L1440 113.875C1331.01 113.875 1296.5 46.9498 1109.51 46.9498C990.002 46.9498 932.712 100.875 717.24 100.875C501.767 100.875 464.599 29.8755 311.408 29.8755Z" fill="#1E6864"/>
</svg>
