<svg width="1034" height="115" viewBox="0 0 1034 115" fill="none" xmlns="http://www.w3.org/2000/svg">
<path fill-rule="evenodd" clip-rule="evenodd" d="M101.176 52.1538C132.964 68.6984 166.206 86 223.612 86C273.932 86 306.818 74.7633 342.502 62.5707C384.823 48.1105 431.078 32.3056 515.019 32.3056C603.698 32.3056 655.065 45.7025 698.916 57.1393C731.573 65.6566 760.062 73.0868 796.69 73.0868C872.83 73.0868 913.761 56.8116 949.202 42.7195C976.26 31.9607 1000.12 22.4743 1034 22.4743V50.8369C999.507 50.8369 975.984 63.3006 949.673 77.2415C916.286 94.9314 878.41 115 807.933 115C765.102 115 732.884 103.314 696.918 90.2691C651.48 73.7887 600.06 55.1383 513.7 55.1383C429.758 55.1383 383.502 70.6483 341.181 84.8388C305.497 96.804 272.611 107.831 222.29 107.831C165.537 107.831 118.496 88.7904 80.9271 73.5838C45.6798 59.3169 18.7702 48.4248 0 59.7982V0H0.00800492L0.00818214 22.4743C44.1518 22.4743 72.0537 36.9964 101.176 52.1538Z" fill="url(#paint0_linear_1_11)"/>
<defs>
<linearGradient id="paint0_linear_1_11" x1="70.1641" y1="58.3584" x2="941.299" y2="305.263" gradientUnits="userSpaceOnUse">
<stop stop-color="#F276D3"/>
<stop offset="0.3" stop-color="#5A91FF"/>
<stop offset="0.835" stop-color="#3EF8FF"/>
</linearGradient>
</defs>
</svg>
