<svg width="86" height="15" viewBox="0 0 86 15" fill="none" xmlns="http://www.w3.org/2000/svg">
<path d="M6.72187 1.23995C6.82298 0.989918 7.17698 0.989918 7.2781 1.23995L8.74836 4.87548C8.79133 4.98174 8.89111 5.05423 9.00545 5.06227L12.9174 5.33712C13.1864 5.35603 13.2958 5.6927 13.0893 5.86614L10.086 8.38787C9.99822 8.46158 9.96011 8.57887 9.9878 8.6901L10.9353 12.4955C11.0004 12.7572 10.714 12.9653 10.4852 12.8224L7.15888 10.7454C7.06165 10.6847 6.93832 10.6847 6.84109 10.7454L3.51472 12.8224C3.28595 12.9653 2.99956 12.7572 3.06472 12.4955L4.01217 8.6901C4.03986 8.57887 4.00175 8.46158 3.91396 8.38787L0.910708 5.86613C0.704158 5.6927 0.813551 5.35603 1.08259 5.33712L4.99452 5.06227C5.10886 5.05423 5.20864 4.98174 5.25161 4.87548L6.72187 1.23995Z" fill="#FBBA00"/>
<path d="M24.7219 1.23995C24.823 0.989918 25.177 0.989918 25.2781 1.23995L26.7484 4.87548C26.7913 4.98174 26.8911 5.05423 27.0054 5.06227L30.9174 5.33712C31.1864 5.35603 31.2958 5.6927 31.0893 5.86614L28.086 8.38787C27.9982 8.46158 27.9601 8.57887 27.9878 8.6901L28.9353 12.4955C29.0004 12.7572 28.714 12.9653 28.4852 12.8224L25.1589 10.7454C25.0616 10.6847 24.9383 10.6847 24.8411 10.7454L21.5147 12.8224C21.286 12.9653 20.9996 12.7572 21.0647 12.4955L22.0122 8.6901C22.0399 8.57887 22.0017 8.46158 21.914 8.38787L18.9107 5.86613C18.7042 5.6927 18.8136 5.35603 19.0826 5.33712L22.9945 5.06227C23.1089 5.05423 23.2086 4.98174 23.2516 4.87548L24.7219 1.23995Z" fill="#FBBA00"/>
<path d="M42.7219 1.23995C42.823 0.989918 43.177 0.989918 43.2781 1.23995L44.7484 4.87548C44.7913 4.98174 44.8911 5.05423 45.0054 5.06227L48.9174 5.33712C49.1864 5.35603 49.2958 5.6927 49.0893 5.86614L46.086 8.38787C45.9982 8.46158 45.9601 8.57887 45.9878 8.6901L46.9353 12.4955C47.0004 12.7572 46.714 12.9653 46.4852 12.8224L43.1589 10.7454C43.0616 10.6847 42.9383 10.6847 42.8411 10.7454L39.5147 12.8224C39.286 12.9653 38.9996 12.7572 39.0647 12.4955L40.0122 8.6901C40.0399 8.57887 40.0017 8.46158 39.914 8.38787L36.9107 5.86613C36.7042 5.6927 36.8136 5.35603 37.0826 5.33712L40.9945 5.06227C41.1089 5.05423 41.2086 4.98174 41.2516 4.87548L42.7219 1.23995Z" fill="#FBBA00"/>
<path d="M60.7219 1.23995C60.823 0.989918 61.177 0.989918 61.2781 1.23995L62.7484 4.87548C62.7913 4.98174 62.8911 5.05423 63.0054 5.06227L66.9174 5.33712C67.1864 5.35603 67.2958 5.6927 67.0893 5.86614L64.086 8.38787C63.9982 8.46158 63.9601 8.57887 63.9878 8.6901L64.9353 12.4955C65.0004 12.7572 64.714 12.9653 64.4852 12.8224L61.1589 10.7454C61.0616 10.6847 60.9383 10.6847 60.8411 10.7454L57.5147 12.8224C57.286 12.9653 56.9996 12.7572 57.0647 12.4955L58.0122 8.6901C58.0399 8.57887 58.0017 8.46158 57.914 8.38787L54.9107 5.86613C54.7042 5.6927 54.8136 5.35603 55.0826 5.33712L58.9945 5.06227C59.1089 5.05423 59.2086 4.98174 59.2516 4.87548L60.7219 1.23995Z" fill="#FBBA00"/>
<path d="M78.7219 1.23995C78.823 0.989918 79.177 0.989918 79.2781 1.23995L80.7484 4.87548C80.7913 4.98174 80.8911 5.05423 81.0054 5.06227L84.9174 5.33712C85.1864 5.35603 85.2958 5.6927 85.0893 5.86614L82.086 8.38787C81.9982 8.46158 81.9601 8.57887 81.9878 8.6901L82.9353 12.4955C83.0004 12.7572 82.714 12.9653 82.4852 12.8224L79.1589 10.7454C79.0616 10.6847 78.9383 10.6847 78.8411 10.7454L75.5147 12.8224C75.286 12.9653 74.9996 12.7572 75.0647 12.4955L76.0122 8.6901C76.0399 8.57887 76.0017 8.46158 75.914 8.38787L72.9107 5.86613C72.7042 5.6927 72.8136 5.35603 73.0826 5.33712L76.9945 5.06227C77.1089 5.05423 77.2086 4.98174 77.2516 4.87548L78.7219 1.23995Z" fill="#FBBA00"/>
</svg>
