<svg width="560" height="367" viewBox="0 0 560 367" fill="none" xmlns="http://www.w3.org/2000/svg">
<path d="M39 307H521V236.588C374.5 236.588 41.5 206.5 39 0.500366V178.5V307Z" fill="url(#paint0_linear_0_1395)" fill-opacity="0.4"/>
<path d="M520 306.5H38V289.289C364.5 317.088 497 94.0883 520 51.5004V190.097V306.5Z" fill="url(#paint1_linear_0_1395)" fill-opacity="0.4"/>
<line x1="519" y1="331.088" x2="519" y2="54.0883" stroke="#2E7B7A" stroke-width="2" stroke-dasharray="8 8"/>
<path d="M39 331.088L39 44.0882" stroke="#2E7B7A" stroke-width="2"/>
<line y1="-0.5" x2="560" y2="-0.5" transform="matrix(-1 -7.27321e-08 -1.05081e-07 1 560 97.0883)" stroke="white" stroke-opacity="0.6" stroke-dasharray="4.59 4.59"/>
<line y1="-0.5" x2="560" y2="-0.5" transform="matrix(-1 -7.27321e-08 -1.05081e-07 1 560 167.088)" stroke="white" stroke-opacity="0.6" stroke-dasharray="4.59 4.59"/>
<line y1="-0.5" x2="560" y2="-0.5" transform="matrix(-1 -7.27321e-08 -1.05081e-07 1 560 237.088)" stroke="white" stroke-opacity="0.6" stroke-dasharray="4.59 4.59"/>
<line y1="-0.5" x2="560" y2="-0.5" transform="matrix(-1 -7.27321e-08 -1.05081e-07 1 560 307.088)" stroke="white" stroke-opacity="0.6" stroke-dasharray="4.59 4.59"/>
<path d="M519.559 238.089C519.559 238.089 333.348 241.874 213.043 193.089C86.043 141.588 48.316 66.5011 48.316 66.5011" stroke="url(#paint2_linear_0_1395)" stroke-width="6" stroke-linecap="round"/>
<path d="M39.0584 290.726C165.543 297.589 251.376 282.124 339.043 234.589C451.543 173.589 520.053 57.4988 520.053 57.4988" stroke="url(#paint3_linear_0_1395)" stroke-width="6" stroke-linecap="round"/>
<circle cx="39" cy="290.088" r="6" fill="white"/>
<circle cx="519.043" cy="238.089" r="10" fill="#5A91FF" stroke="white" stroke-width="4"/>
<path d="M0.660253 350.452H2.65457L5.69434 355.742H5.81934L8.85912 350.452H10.8534L6.63184 357.52V362.088H4.88184V357.52L0.660253 350.452ZM21.1066 356.27C21.1066 357.512 20.8793 358.581 20.4248 359.475C19.9702 360.365 19.3471 361.05 18.5554 361.531C17.7676 362.009 16.8717 362.247 15.8679 362.247C14.8604 362.247 13.9607 362.009 13.1691 361.531C12.3812 361.05 11.76 360.363 11.3054 359.469C10.8509 358.575 10.6236 357.509 10.6236 356.27C10.6236 355.028 10.8509 353.961 11.3054 353.071C11.76 352.177 12.3812 351.492 13.1691 351.014C13.9607 350.533 14.8604 350.293 15.8679 350.293C16.8717 350.293 17.7676 350.533 18.5554 351.014C19.3471 351.492 19.9702 352.177 20.4248 353.071C20.8793 353.961 21.1066 355.028 21.1066 356.27ZM19.3679 356.27C19.3679 355.323 19.2145 354.526 18.9077 353.878C18.6047 353.227 18.188 352.734 17.6577 352.401C17.1312 352.064 16.5346 351.895 15.8679 351.895C15.1975 351.895 14.599 352.064 14.0725 352.401C13.546 352.734 13.1293 353.227 12.8225 353.878C12.5195 354.526 12.3679 355.323 12.3679 356.27C12.3679 357.217 12.5195 358.016 12.8225 358.668C13.1293 359.316 13.546 359.808 14.0725 360.145C14.599 360.478 15.1975 360.645 15.8679 360.645C16.5346 360.645 17.1312 360.478 17.6577 360.145C18.188 359.808 18.6047 359.316 18.9077 358.668C19.2145 358.016 19.3679 357.217 19.3679 356.27ZM29.8597 350.452H31.6211V358.105C31.6211 358.92 31.4298 359.641 31.0472 360.27C30.6647 360.895 30.1268 361.387 29.4336 361.747C28.7404 362.103 27.9279 362.281 26.9961 362.281C26.0681 362.281 25.2575 362.103 24.5643 361.747C23.8711 361.387 23.3332 360.895 22.9506 360.27C22.5681 359.641 22.3768 358.92 22.3768 358.105V350.452H24.1325V357.963C24.1325 358.49 24.248 358.958 24.479 359.367C24.7139 359.776 25.0453 360.098 25.4734 360.333C25.9014 360.564 26.409 360.679 26.9961 360.679C27.587 360.679 28.0965 360.564 28.5245 360.333C28.9563 360.098 29.2859 359.776 29.5131 359.367C29.7442 358.958 29.8597 358.49 29.8597 357.963V350.452ZM37.5535 362.088H35.6899L39.8774 350.452H41.9058L46.0933 362.088H44.2297L40.9399 352.566H40.849L37.5535 362.088ZM37.866 357.531H43.9115V359.009H37.866V357.531ZM46.855 362.088V350.452H51.0027C51.9042 350.452 52.6523 350.607 53.247 350.918C53.8455 351.228 54.2925 351.658 54.5879 352.208C54.8834 352.753 55.0311 353.384 55.0311 354.1C55.0311 354.812 54.8815 355.439 54.5822 355.98C54.2868 356.518 53.8398 356.937 53.2413 357.236C52.6466 357.535 51.8985 357.685 50.997 357.685H47.855V356.173H50.8379C51.4061 356.173 51.8682 356.092 52.2243 355.929C52.5841 355.766 52.8474 355.53 53.0141 355.219C53.1807 354.908 53.2641 354.535 53.2641 354.1C53.2641 353.66 53.1788 353.28 53.0084 352.958C52.8417 352.636 52.5784 352.389 52.2186 352.219C51.8625 352.045 51.3947 351.958 50.8152 351.958H48.6106V362.088H46.855ZM52.5993 356.838L55.4743 362.088H53.4743L50.6561 356.838H52.5993ZM56.2487 362.088V350.452H63.5442V351.963H58.0044V355.509H63.1635V357.014H58.0044V360.577H63.6124V362.088H56.2487ZM68.2863 362.088V350.452H70.042V355.509H75.8431V350.452H77.6045V362.088H75.8431V357.014H70.042V362.088H68.2863ZM79.2425 362.088V350.452H86.538V351.963H80.9982V355.509H86.1573V357.014H80.9982V360.577H86.6062V362.088H79.2425ZM87.9644 362.088V350.452H92.1122C93.0137 350.452 93.7618 350.607 94.3565 350.918C94.955 351.228 95.4019 351.658 95.6974 352.208C95.9929 352.753 96.1406 353.384 96.1406 354.1C96.1406 354.812 95.991 355.439 95.6917 355.98C95.3963 356.518 94.9493 356.937 94.3508 357.236C93.7561 357.535 93.008 357.685 92.1065 357.685H88.9644V356.173H91.9474C92.5156 356.173 92.9777 356.092 93.3338 355.929C93.6936 355.766 93.9569 355.53 94.1235 355.219C94.2902 354.908 94.3735 354.535 94.3735 354.1C94.3735 353.66 94.2883 353.28 94.1179 352.958C93.9512 352.636 93.6879 352.389 93.3281 352.219C92.972 352.045 92.5042 351.958 91.9247 351.958H89.7201V362.088H87.9644ZM93.7088 356.838L96.5838 362.088H94.5838L91.7656 356.838H93.7088ZM97.3582 362.088V350.452H104.654V351.963H99.1139V355.509H104.273V357.014H99.1139V360.577H104.722V362.088H97.3582Z" fill="white"/>
<path d="M497.706 362.088H493.763V350.452H497.786C498.941 350.452 499.934 350.685 500.763 351.151C501.597 351.613 502.237 352.278 502.684 353.145C503.131 354.012 503.354 355.05 503.354 356.259C503.354 357.471 503.129 358.512 502.678 359.384C502.231 360.255 501.585 360.923 500.741 361.389C499.9 361.855 498.888 362.088 497.706 362.088ZM495.871 360.264H497.604C498.415 360.264 499.091 360.117 499.633 359.821C500.174 359.522 500.581 359.077 500.854 358.486C501.127 357.891 501.263 357.149 501.263 356.259C501.263 355.369 501.127 354.63 500.854 354.043C500.581 353.452 500.178 353.011 499.644 352.719C499.114 352.423 498.455 352.276 497.667 352.276H495.871V360.264ZM505.308 362.088H503.058L507.154 350.452H509.756L513.859 362.088H511.609L508.501 352.838H508.41L505.308 362.088ZM505.381 357.526H511.518V359.219H505.381V357.526ZM512.49 350.452H514.87L517.717 355.6H517.831L520.677 350.452H523.058L518.825 357.747V362.088H516.723V357.747L512.49 350.452ZM531.301 350.452V362.088H529.193V352.503H529.125L526.404 354.242V352.31L529.296 350.452H531.301ZM537.474 362.247C536.629 362.247 535.879 362.105 535.224 361.821C534.572 361.537 534.061 361.149 533.69 360.656C533.322 360.16 533.14 359.598 533.144 358.969C533.14 358.48 533.246 358.031 533.462 357.622C533.678 357.213 533.97 356.872 534.337 356.6C534.708 356.323 535.121 356.147 535.576 356.071V355.992C534.977 355.859 534.493 355.554 534.121 355.077C533.754 354.596 533.572 354.041 533.576 353.412C533.572 352.814 533.739 352.28 534.076 351.81C534.413 351.34 534.875 350.971 535.462 350.702C536.049 350.429 536.72 350.293 537.474 350.293C538.22 350.293 538.885 350.429 539.468 350.702C540.055 350.971 540.517 351.34 540.854 351.81C541.195 352.28 541.366 352.814 541.366 353.412C541.366 354.041 541.178 354.596 540.803 355.077C540.432 355.554 539.953 355.859 539.366 355.992V356.071C539.82 356.147 540.229 356.323 540.593 356.6C540.96 356.872 541.252 357.213 541.468 357.622C541.688 358.031 541.797 358.48 541.797 358.969C541.797 359.598 541.612 360.16 541.241 360.656C540.869 361.149 540.358 361.537 539.707 361.821C539.059 362.105 538.315 362.247 537.474 362.247ZM537.474 360.622C537.909 360.622 538.288 360.548 538.61 360.401C538.932 360.249 539.182 360.037 539.36 359.764C539.538 359.492 539.629 359.177 539.633 358.821C539.629 358.45 539.532 358.122 539.343 357.838C539.157 357.55 538.902 357.325 538.576 357.162C538.254 356.999 537.887 356.918 537.474 356.918C537.057 356.918 536.686 356.999 536.36 357.162C536.034 357.325 535.777 357.55 535.587 357.838C535.402 358.122 535.311 358.45 535.315 358.821C535.311 359.177 535.398 359.492 535.576 359.764C535.754 360.033 536.004 360.244 536.326 360.395C536.652 360.547 537.034 360.622 537.474 360.622ZM537.474 355.321C537.83 355.321 538.144 355.249 538.417 355.105C538.693 354.961 538.911 354.761 539.07 354.503C539.229 354.245 539.311 353.948 539.315 353.611C539.311 353.278 539.231 352.986 539.076 352.736C538.921 352.482 538.705 352.287 538.428 352.151C538.152 352.011 537.833 351.941 537.474 351.941C537.106 351.941 536.782 352.011 536.502 352.151C536.226 352.287 536.01 352.482 535.854 352.736C535.703 352.986 535.629 353.278 535.633 353.611C535.629 353.948 535.705 354.245 535.86 354.503C536.019 354.757 536.237 354.958 536.513 355.105C536.794 355.249 537.114 355.321 537.474 355.321ZM547.048 362.31C546.112 362.31 545.309 362.073 544.639 361.6C543.972 361.122 543.459 360.435 543.099 359.537C542.743 358.636 542.565 357.55 542.565 356.281C542.569 355.012 542.749 353.933 543.105 353.043C543.464 352.149 543.978 351.467 544.644 350.997C545.315 350.528 546.116 350.293 547.048 350.293C547.98 350.293 548.781 350.528 549.451 350.997C550.122 351.467 550.635 352.149 550.991 353.043C551.351 353.937 551.531 355.016 551.531 356.281C551.531 357.554 551.351 358.641 550.991 359.543C550.635 360.441 550.122 361.126 549.451 361.6C548.785 362.073 547.983 362.31 547.048 362.31ZM547.048 360.531C547.775 360.531 548.349 360.173 548.769 359.458C549.194 358.738 549.406 357.679 549.406 356.281C549.406 355.357 549.309 354.581 549.116 353.952C548.923 353.323 548.65 352.85 548.298 352.531C547.946 352.209 547.529 352.048 547.048 352.048C546.324 352.048 545.752 352.408 545.332 353.128C544.911 353.844 544.699 354.895 544.696 356.281C544.692 357.209 544.785 357.99 544.974 358.622C545.167 359.255 545.44 359.732 545.792 360.054C546.144 360.372 546.563 360.531 547.048 360.531Z" fill="white"/>
<path d="M519 254.088L527 264.088L511 264.088L519 254.088Z" fill="#5A91FF"/>
<rect x="406" y="264.088" width="151" height="54" rx="16" fill="#5A91FF"/>
<path d="M424.638 287.088V275.452H428.786C429.691 275.452 430.441 275.617 431.036 275.946C431.63 276.276 432.075 276.727 432.371 277.298C432.666 277.867 432.814 278.507 432.814 279.219C432.814 279.935 432.664 280.579 432.365 281.151C432.07 281.719 431.623 282.17 431.024 282.503C430.429 282.833 429.681 282.997 428.78 282.997H425.928V281.509H428.621C429.193 281.509 429.657 281.41 430.013 281.213C430.369 281.012 430.63 280.74 430.797 280.395C430.964 280.05 431.047 279.658 431.047 279.219C431.047 278.78 430.964 278.389 430.797 278.048C430.63 277.708 430.367 277.441 430.007 277.247C429.651 277.054 429.181 276.958 428.598 276.958H426.393V287.088H424.638ZM434.736 287.088V278.361H436.378V279.747H436.469C436.628 279.278 436.908 278.908 437.31 278.639C437.715 278.367 438.173 278.23 438.685 278.23C438.791 278.23 438.916 278.234 439.06 278.242C439.207 278.249 439.323 278.259 439.406 278.27V279.895C439.338 279.876 439.217 279.855 439.043 279.833C438.868 279.806 438.694 279.793 438.52 279.793C438.118 279.793 437.76 279.878 437.446 280.048C437.135 280.215 436.889 280.448 436.707 280.747C436.526 281.043 436.435 281.38 436.435 281.759V287.088H434.736ZM444.24 287.264C443.422 287.264 442.708 287.077 442.098 286.702C441.488 286.327 441.015 285.802 440.678 285.128C440.34 284.454 440.172 283.666 440.172 282.764C440.172 281.859 440.34 281.067 440.678 280.389C441.015 279.711 441.488 279.185 442.098 278.81C442.708 278.435 443.422 278.247 444.24 278.247C445.058 278.247 445.772 278.435 446.382 278.81C446.992 279.185 447.465 279.711 447.803 280.389C448.14 281.067 448.308 281.859 448.308 282.764C448.308 283.666 448.14 284.454 447.803 285.128C447.465 285.802 446.992 286.327 446.382 286.702C445.772 287.077 445.058 287.264 444.24 287.264ZM444.246 285.838C444.776 285.838 445.215 285.698 445.564 285.418C445.912 285.137 446.17 284.764 446.337 284.298C446.507 283.833 446.592 283.319 446.592 282.759C446.592 282.202 446.507 281.691 446.337 281.225C446.17 280.755 445.912 280.378 445.564 280.094C445.215 279.81 444.776 279.668 444.246 279.668C443.712 279.668 443.268 279.81 442.916 280.094C442.568 280.378 442.308 280.755 442.138 281.225C441.971 281.691 441.888 282.202 441.888 282.759C441.888 283.319 441.971 283.833 442.138 284.298C442.308 284.764 442.568 285.137 442.916 285.418C443.268 285.698 443.712 285.838 444.246 285.838ZM453.881 287.264C453.036 287.264 452.309 287.073 451.699 286.691C451.093 286.304 450.627 285.772 450.301 285.094C449.975 284.416 449.812 283.639 449.812 282.764C449.812 281.878 449.979 281.096 450.312 280.418C450.646 279.736 451.116 279.204 451.722 278.821C452.328 278.439 453.042 278.247 453.864 278.247C454.527 278.247 455.117 278.37 455.636 278.617C456.155 278.859 456.574 279.2 456.892 279.639C457.214 280.079 457.405 280.592 457.466 281.179H455.812C455.722 280.77 455.513 280.418 455.188 280.122C454.866 279.827 454.434 279.679 453.892 279.679C453.419 279.679 453.004 279.804 452.648 280.054C452.295 280.3 452.021 280.653 451.824 281.111C451.627 281.566 451.528 282.103 451.528 282.725C451.528 283.361 451.625 283.91 451.818 284.372C452.011 284.834 452.284 285.192 452.636 285.446C452.992 285.7 453.411 285.827 453.892 285.827C454.214 285.827 454.506 285.768 454.767 285.651C455.032 285.53 455.254 285.357 455.432 285.134C455.614 284.91 455.741 284.641 455.812 284.327H457.466C457.405 284.891 457.222 285.395 456.915 285.838C456.608 286.281 456.197 286.63 455.682 286.884C455.17 287.137 454.57 287.264 453.881 287.264ZM459.283 287.088V278.361H460.925V279.747H461.016C461.175 279.278 461.455 278.908 461.857 278.639C462.262 278.367 462.72 278.23 463.232 278.23C463.338 278.23 463.463 278.234 463.607 278.242C463.754 278.249 463.87 278.259 463.953 278.27V279.895C463.885 279.876 463.764 279.855 463.589 279.833C463.415 279.806 463.241 279.793 463.067 279.793C462.665 279.793 462.307 279.878 461.993 280.048C461.682 280.215 461.436 280.448 461.254 280.747C461.072 281.043 460.982 281.38 460.982 281.759V287.088H459.283ZM467.885 287.281C467.332 287.281 466.832 287.179 466.385 286.975C465.938 286.766 465.584 286.465 465.322 286.071C465.065 285.677 464.936 285.194 464.936 284.622C464.936 284.13 465.031 283.725 465.22 283.406C465.41 283.088 465.665 282.836 465.987 282.651C466.309 282.465 466.669 282.325 467.067 282.23C467.464 282.136 467.87 282.064 468.283 282.014C468.805 281.954 469.23 281.905 469.555 281.867C469.881 281.825 470.118 281.759 470.266 281.668C470.413 281.577 470.487 281.429 470.487 281.225V281.185C470.487 280.689 470.347 280.304 470.067 280.031C469.79 279.759 469.377 279.622 468.828 279.622C468.256 279.622 467.805 279.749 467.476 280.003C467.15 280.253 466.925 280.531 466.8 280.838L465.203 280.475C465.393 279.944 465.669 279.516 466.033 279.191C466.4 278.861 466.822 278.622 467.3 278.475C467.777 278.323 468.279 278.247 468.805 278.247C469.154 278.247 469.523 278.289 469.913 278.372C470.307 278.452 470.675 278.6 471.016 278.816C471.36 279.031 471.643 279.34 471.862 279.742C472.082 280.139 472.192 280.656 472.192 281.293V287.088H470.533V285.895H470.464C470.355 286.115 470.19 286.331 469.97 286.543C469.75 286.755 469.468 286.931 469.124 287.071C468.779 287.211 468.366 287.281 467.885 287.281ZM468.254 285.918C468.724 285.918 469.125 285.825 469.459 285.639C469.796 285.454 470.052 285.211 470.226 284.912C470.404 284.609 470.493 284.285 470.493 283.941V282.816C470.432 282.876 470.315 282.933 470.141 282.986C469.97 283.035 469.775 283.079 469.555 283.117C469.336 283.151 469.122 283.183 468.913 283.213C468.705 283.24 468.531 283.262 468.391 283.281C468.061 283.323 467.76 283.393 467.487 283.492C467.218 283.59 467.002 283.732 466.839 283.918C466.68 284.1 466.601 284.342 466.601 284.645C466.601 285.066 466.756 285.384 467.067 285.6C467.377 285.812 467.773 285.918 468.254 285.918ZM480.994 280.492L479.455 280.764C479.39 280.567 479.288 280.38 479.148 280.202C479.011 280.024 478.826 279.878 478.591 279.764C478.356 279.651 478.063 279.594 477.71 279.594C477.229 279.594 476.828 279.702 476.506 279.918C476.184 280.13 476.023 280.405 476.023 280.742C476.023 281.033 476.131 281.268 476.347 281.446C476.563 281.624 476.911 281.77 477.392 281.884L478.778 282.202C479.581 282.387 480.18 282.673 480.574 283.06C480.968 283.446 481.165 283.948 481.165 284.566C481.165 285.088 481.013 285.554 480.71 285.963C480.411 286.369 479.992 286.687 479.455 286.918C478.92 287.149 478.301 287.264 477.597 287.264C476.619 287.264 475.822 287.056 475.205 286.639C474.587 286.219 474.208 285.622 474.068 284.85L475.71 284.6C475.813 285.028 476.023 285.352 476.341 285.571C476.659 285.787 477.074 285.895 477.585 285.895C478.142 285.895 478.587 285.78 478.92 285.548C479.254 285.314 479.42 285.028 479.42 284.691C479.42 284.418 479.318 284.189 479.114 284.003C478.913 283.817 478.604 283.677 478.188 283.583L476.71 283.259C475.896 283.073 475.294 282.778 474.903 282.372C474.517 281.967 474.324 281.454 474.324 280.833C474.324 280.317 474.468 279.867 474.756 279.48C475.044 279.094 475.441 278.793 475.949 278.577C476.456 278.357 477.038 278.247 477.693 278.247C478.636 278.247 479.379 278.452 479.92 278.861C480.462 279.266 480.82 279.81 480.994 280.492ZM487.107 278.361V279.725H482.339V278.361H487.107ZM483.618 276.27H485.317V284.526C485.317 284.855 485.366 285.103 485.464 285.27C485.563 285.433 485.69 285.545 485.845 285.605C486.004 285.662 486.177 285.691 486.362 285.691C486.499 285.691 486.618 285.681 486.72 285.662C486.822 285.643 486.902 285.628 486.959 285.617L487.266 287.02C487.167 287.058 487.027 287.096 486.845 287.134C486.663 287.175 486.436 287.198 486.163 287.202C485.716 287.209 485.3 287.13 484.913 286.963C484.527 286.797 484.214 286.539 483.976 286.191C483.737 285.842 483.618 285.405 483.618 284.878V276.27ZM488.986 287.088V278.361H490.685V287.088H488.986ZM489.844 277.014C489.548 277.014 489.295 276.916 489.082 276.719C488.874 276.518 488.77 276.28 488.77 276.003C488.77 275.723 488.874 275.484 489.082 275.287C489.295 275.086 489.548 274.986 489.844 274.986C490.139 274.986 490.391 275.086 490.599 275.287C490.812 275.484 490.918 275.723 490.918 276.003C490.918 276.28 490.812 276.518 490.599 276.719C490.391 276.916 490.139 277.014 489.844 277.014ZM494.669 281.906V287.088H492.97V278.361H494.601V279.781H494.709C494.91 279.319 495.224 278.948 495.652 278.668C496.084 278.387 496.627 278.247 497.283 278.247C497.877 278.247 498.398 278.372 498.845 278.622C499.292 278.869 499.639 279.236 499.885 279.725C500.131 280.213 500.254 280.817 500.254 281.537V287.088H498.555V281.742C498.555 281.109 498.391 280.615 498.061 280.259C497.732 279.899 497.279 279.719 496.703 279.719C496.309 279.719 495.959 279.804 495.652 279.975C495.349 280.145 495.108 280.395 494.93 280.725C494.756 281.05 494.669 281.444 494.669 281.906ZM505.072 287.281C504.519 287.281 504.019 287.179 503.572 286.975C503.125 286.766 502.771 286.465 502.51 286.071C502.252 285.677 502.124 285.194 502.124 284.622C502.124 284.13 502.218 283.725 502.408 283.406C502.597 283.088 502.853 282.836 503.175 282.651C503.497 282.465 503.857 282.325 504.254 282.23C504.652 282.136 505.057 282.064 505.47 282.014C505.993 281.954 506.417 281.905 506.743 281.867C507.069 281.825 507.305 281.759 507.453 281.668C507.601 281.577 507.675 281.429 507.675 281.225V281.185C507.675 280.689 507.535 280.304 507.254 280.031C506.978 279.759 506.565 279.622 506.016 279.622C505.444 279.622 504.993 279.749 504.663 280.003C504.338 280.253 504.112 280.531 503.987 280.838L502.391 280.475C502.58 279.944 502.857 279.516 503.22 279.191C503.588 278.861 504.01 278.622 504.487 278.475C504.964 278.323 505.466 278.247 505.993 278.247C506.341 278.247 506.711 278.289 507.101 278.372C507.495 278.452 507.862 278.6 508.203 278.816C508.548 279.031 508.83 279.34 509.05 279.742C509.269 280.139 509.379 280.656 509.379 281.293V287.088H507.72V285.895H507.652C507.542 286.115 507.377 286.331 507.158 286.543C506.938 286.755 506.656 286.931 506.311 287.071C505.966 287.211 505.554 287.281 505.072 287.281ZM505.442 285.918C505.911 285.918 506.313 285.825 506.646 285.639C506.983 285.454 507.239 285.211 507.413 284.912C507.591 284.609 507.68 284.285 507.68 283.941V282.816C507.62 282.876 507.502 282.933 507.328 282.986C507.158 283.035 506.963 283.079 506.743 283.117C506.523 283.151 506.309 283.183 506.101 283.213C505.893 283.24 505.718 283.262 505.578 283.281C505.249 283.323 504.947 283.393 504.675 283.492C504.406 283.59 504.19 283.732 504.027 283.918C503.868 284.1 503.788 284.342 503.788 284.645C503.788 285.066 503.944 285.384 504.254 285.6C504.565 285.812 504.961 285.918 505.442 285.918ZM515.716 278.361V279.725H510.949V278.361H515.716ZM512.227 276.27H513.926V284.526C513.926 284.855 513.975 285.103 514.074 285.27C514.172 285.433 514.299 285.545 514.455 285.605C514.614 285.662 514.786 285.691 514.972 285.691C515.108 285.691 515.227 285.681 515.33 285.662C515.432 285.643 515.511 285.628 515.568 285.617L515.875 287.02C515.777 287.058 515.636 287.096 515.455 287.134C515.273 287.175 515.045 287.198 514.773 287.202C514.326 287.209 513.909 287.13 513.523 286.963C513.136 286.797 512.824 286.539 512.585 286.191C512.347 285.842 512.227 285.405 512.227 284.878V276.27ZM517.595 287.088V278.361H519.294V287.088H517.595ZM518.453 277.014C518.158 277.014 517.904 276.916 517.692 276.719C517.483 276.518 517.379 276.28 517.379 276.003C517.379 275.723 517.483 275.484 517.692 275.287C517.904 275.086 518.158 274.986 518.453 274.986C518.749 274.986 519 275.086 519.209 275.287C519.421 275.484 519.527 275.723 519.527 276.003C519.527 276.28 519.421 276.518 519.209 276.719C519 276.916 518.749 277.014 518.453 277.014ZM525.256 287.264C524.438 287.264 523.723 287.077 523.114 286.702C522.504 286.327 522.03 285.802 521.693 285.128C521.356 284.454 521.188 283.666 521.188 282.764C521.188 281.859 521.356 281.067 521.693 280.389C522.03 279.711 522.504 279.185 523.114 278.81C523.723 278.435 524.438 278.247 525.256 278.247C526.074 278.247 526.788 278.435 527.398 278.81C528.008 279.185 528.481 279.711 528.818 280.389C529.155 281.067 529.324 281.859 529.324 282.764C529.324 283.666 529.155 284.454 528.818 285.128C528.481 285.802 528.008 286.327 527.398 286.702C526.788 287.077 526.074 287.264 525.256 287.264ZM525.261 285.838C525.792 285.838 526.231 285.698 526.58 285.418C526.928 285.137 527.186 284.764 527.352 284.298C527.523 283.833 527.608 283.319 527.608 282.759C527.608 282.202 527.523 281.691 527.352 281.225C527.186 280.755 526.928 280.378 526.58 280.094C526.231 279.81 525.792 279.668 525.261 279.668C524.727 279.668 524.284 279.81 523.932 280.094C523.583 280.378 523.324 280.755 523.153 281.225C522.987 281.691 522.903 282.202 522.903 282.759C522.903 283.319 522.987 283.833 523.153 284.298C523.324 284.764 523.583 285.137 523.932 285.418C524.284 285.698 524.727 285.838 525.261 285.838ZM532.919 281.906V287.088H531.22V278.361H532.851V279.781H532.959C533.16 279.319 533.474 278.948 533.902 278.668C534.334 278.387 534.877 278.247 535.533 278.247C536.127 278.247 536.648 278.372 537.095 278.622C537.542 278.869 537.889 279.236 538.135 279.725C538.381 280.213 538.504 280.817 538.504 281.537V287.088H536.805V281.742C536.805 281.109 536.641 280.615 536.311 280.259C535.982 279.899 535.529 279.719 534.953 279.719C534.559 279.719 534.209 279.804 533.902 279.975C533.599 280.145 533.358 280.395 533.18 280.725C533.006 281.05 532.919 281.444 532.919 281.906ZM449.244 299.492L447.705 299.764C447.64 299.567 447.538 299.38 447.398 299.202C447.261 299.024 447.076 298.878 446.841 298.764C446.606 298.651 446.313 298.594 445.96 298.594C445.479 298.594 445.078 298.702 444.756 298.918C444.434 299.13 444.273 299.405 444.273 299.742C444.273 300.033 444.381 300.268 444.597 300.446C444.813 300.624 445.161 300.77 445.642 300.884L447.028 301.202C447.831 301.387 448.43 301.673 448.824 302.06C449.218 302.446 449.415 302.948 449.415 303.566C449.415 304.088 449.263 304.554 448.96 304.963C448.661 305.369 448.242 305.687 447.705 305.918C447.17 306.149 446.551 306.264 445.847 306.264C444.869 306.264 444.072 306.056 443.455 305.639C442.837 305.219 442.458 304.622 442.318 303.85L443.96 303.6C444.063 304.028 444.273 304.352 444.591 304.571C444.909 304.787 445.324 304.895 445.835 304.895C446.392 304.895 446.837 304.78 447.17 304.548C447.504 304.314 447.67 304.028 447.67 303.691C447.67 303.418 447.568 303.189 447.364 303.003C447.163 302.817 446.854 302.677 446.438 302.583L444.96 302.259C444.146 302.073 443.544 301.778 443.153 301.372C442.767 300.967 442.574 300.454 442.574 299.833C442.574 299.317 442.718 298.867 443.006 298.48C443.294 298.094 443.691 297.793 444.199 297.577C444.706 297.357 445.288 297.247 445.943 297.247C446.886 297.247 447.629 297.452 448.17 297.861C448.712 298.266 449.07 298.81 449.244 299.492ZM452.357 309.361C452.103 309.361 451.872 309.34 451.663 309.298C451.455 309.261 451.3 309.219 451.197 309.173L451.607 307.781C451.917 307.865 452.194 307.901 452.436 307.889C452.679 307.878 452.893 307.787 453.078 307.617C453.268 307.446 453.434 307.168 453.578 306.781L453.788 306.202L450.595 297.361H452.413L454.624 304.134H454.714L456.925 297.361H458.749L455.152 307.253C454.985 307.708 454.773 308.092 454.516 308.406C454.258 308.725 453.951 308.963 453.595 309.122C453.239 309.281 452.826 309.361 452.357 309.361ZM460.345 306.088V297.361H461.976V298.781H462.084C462.266 298.3 462.563 297.925 462.976 297.656C463.389 297.384 463.883 297.247 464.459 297.247C465.042 297.247 465.531 297.384 465.925 297.656C466.322 297.929 466.616 298.304 466.805 298.781H466.896C467.105 298.316 467.436 297.944 467.891 297.668C468.345 297.387 468.887 297.247 469.516 297.247C470.307 297.247 470.953 297.495 471.453 297.992C471.957 298.488 472.209 299.236 472.209 300.236V306.088H470.51V300.395C470.51 299.804 470.349 299.376 470.027 299.111C469.705 298.846 469.321 298.713 468.874 298.713C468.321 298.713 467.891 298.884 467.584 299.225C467.277 299.562 467.124 299.995 467.124 300.526V306.088H465.43V300.287C465.43 299.814 465.283 299.433 464.987 299.145C464.692 298.857 464.307 298.713 463.834 298.713C463.512 298.713 463.214 298.798 462.942 298.969C462.673 299.136 462.455 299.369 462.288 299.668C462.125 299.967 462.044 300.314 462.044 300.708V306.088H460.345ZM474.486 309.361V297.361H476.145V298.776H476.287C476.385 298.594 476.527 298.384 476.713 298.145C476.899 297.906 477.156 297.698 477.486 297.52C477.815 297.338 478.251 297.247 478.793 297.247C479.497 297.247 480.126 297.425 480.679 297.781C481.232 298.137 481.666 298.651 481.98 299.321C482.298 299.992 482.457 300.798 482.457 301.742C482.457 302.685 482.3 303.494 481.986 304.168C481.671 304.838 481.24 305.355 480.69 305.719C480.141 306.079 479.514 306.259 478.81 306.259C478.279 306.259 477.846 306.17 477.509 305.992C477.175 305.814 476.914 305.605 476.724 305.367C476.535 305.128 476.389 304.916 476.287 304.73H476.185V309.361H474.486ZM476.151 301.725C476.151 302.338 476.24 302.876 476.418 303.338C476.596 303.8 476.853 304.162 477.19 304.423C477.527 304.681 477.94 304.81 478.429 304.81C478.937 304.81 479.361 304.675 479.702 304.406C480.043 304.134 480.3 303.764 480.474 303.298C480.652 302.833 480.741 302.308 480.741 301.725C480.741 301.149 480.654 300.632 480.48 300.173C480.31 299.715 480.052 299.353 479.707 299.088C479.366 298.823 478.94 298.691 478.429 298.691C477.937 298.691 477.52 298.817 477.179 299.071C476.842 299.325 476.586 299.679 476.412 300.134C476.238 300.588 476.151 301.119 476.151 301.725ZM488.435 297.361V298.725H483.668V297.361H488.435ZM484.946 295.27H486.645V303.526C486.645 303.855 486.694 304.103 486.793 304.27C486.891 304.433 487.018 304.545 487.173 304.605C487.332 304.662 487.505 304.691 487.69 304.691C487.827 304.691 487.946 304.681 488.048 304.662C488.151 304.643 488.23 304.628 488.287 304.617L488.594 306.02C488.495 306.058 488.355 306.096 488.173 306.134C487.991 306.175 487.764 306.198 487.491 306.202C487.045 306.209 486.628 306.13 486.241 305.963C485.855 305.797 485.543 305.539 485.304 305.191C485.065 304.842 484.946 304.405 484.946 303.878V295.27ZM493.896 306.264C493.078 306.264 492.364 306.077 491.754 305.702C491.144 305.327 490.671 304.802 490.334 304.128C489.997 303.454 489.828 302.666 489.828 301.764C489.828 300.859 489.997 300.067 490.334 299.389C490.671 298.711 491.144 298.185 491.754 297.81C492.364 297.435 493.078 297.247 493.896 297.247C494.714 297.247 495.429 297.435 496.038 297.81C496.648 298.185 497.122 298.711 497.459 299.389C497.796 300.067 497.964 300.859 497.964 301.764C497.964 302.666 497.796 303.454 497.459 304.128C497.122 304.802 496.648 305.327 496.038 305.702C495.429 306.077 494.714 306.264 493.896 306.264ZM493.902 304.838C494.432 304.838 494.872 304.698 495.22 304.418C495.569 304.137 495.826 303.764 495.993 303.298C496.163 302.833 496.249 302.319 496.249 301.759C496.249 301.202 496.163 300.691 495.993 300.225C495.826 299.755 495.569 299.378 495.22 299.094C494.872 298.81 494.432 298.668 493.902 298.668C493.368 298.668 492.925 298.81 492.572 299.094C492.224 299.378 491.964 299.755 491.794 300.225C491.627 300.691 491.544 301.202 491.544 301.759C491.544 302.319 491.627 302.833 491.794 303.298C491.964 303.764 492.224 304.137 492.572 304.418C492.925 304.698 493.368 304.838 493.902 304.838ZM499.861 306.088V297.361H501.491V298.781H501.599C501.781 298.3 502.079 297.925 502.491 297.656C502.904 297.384 503.399 297.247 503.974 297.247C504.558 297.247 505.046 297.384 505.44 297.656C505.838 297.929 506.132 298.304 506.321 298.781H506.412C506.62 298.316 506.952 297.944 507.406 297.668C507.861 297.387 508.402 297.247 509.031 297.247C509.823 297.247 510.469 297.495 510.969 297.992C511.473 298.488 511.724 299.236 511.724 300.236V306.088H510.026V300.395C510.026 299.804 509.865 299.376 509.543 299.111C509.221 298.846 508.836 298.713 508.389 298.713C507.836 298.713 507.406 298.884 507.099 299.225C506.793 299.562 506.639 299.995 506.639 300.526V306.088H504.946V300.287C504.946 299.814 504.798 299.433 504.503 299.145C504.207 298.857 503.823 298.713 503.349 298.713C503.027 298.713 502.73 298.798 502.457 298.969C502.188 299.136 501.971 299.369 501.804 299.668C501.641 299.967 501.56 300.314 501.56 300.708V306.088H499.861ZM520.541 299.492L519.001 299.764C518.937 299.567 518.835 299.38 518.695 299.202C518.558 299.024 518.373 298.878 518.138 298.764C517.903 298.651 517.609 298.594 517.257 298.594C516.776 298.594 516.375 298.702 516.053 298.918C515.731 299.13 515.57 299.405 515.57 299.742C515.57 300.033 515.678 300.268 515.893 300.446C516.109 300.624 516.458 300.77 516.939 300.884L518.325 301.202C519.128 301.387 519.727 301.673 520.121 302.06C520.515 302.446 520.712 302.948 520.712 303.566C520.712 304.088 520.56 304.554 520.257 304.963C519.958 305.369 519.539 305.687 519.001 305.918C518.467 306.149 517.848 306.264 517.143 306.264C516.166 306.264 515.369 306.056 514.751 305.639C514.134 305.219 513.755 304.622 513.615 303.85L515.257 303.6C515.359 304.028 515.57 304.352 515.888 304.571C516.206 304.787 516.621 304.895 517.132 304.895C517.689 304.895 518.134 304.78 518.467 304.548C518.801 304.314 518.967 304.028 518.967 303.691C518.967 303.418 518.865 303.189 518.661 303.003C518.46 302.817 518.151 302.677 517.734 302.583L516.257 302.259C515.443 302.073 514.84 301.778 514.45 301.372C514.064 300.967 513.871 300.454 513.871 299.833C513.871 299.317 514.015 298.867 514.303 298.48C514.59 298.094 514.988 297.793 515.496 297.577C516.003 297.357 516.585 297.247 517.24 297.247C518.183 297.247 518.926 297.452 519.467 297.861C520.009 298.266 520.367 298.81 520.541 299.492Z" fill="white"/>
<path d="M505 55.0883L495 63.0883L495 47.0883L505 55.0883Z" fill="#3DF7FF"/>
<rect x="335" y="30.0883" width="160" height="54" rx="16" fill="#3DF7FF"/>
<path d="M353.661 53.0883V41.4519H357.809C358.714 41.4519 359.464 41.6167 360.059 41.9462C360.654 42.2758 361.099 42.7265 361.394 43.2985C361.69 43.8667 361.837 44.5068 361.837 45.2189C361.837 45.9348 361.688 46.5788 361.388 47.1508C361.093 47.7189 360.646 48.1697 360.048 48.503C359.453 48.8326 358.705 48.9973 357.803 48.9973H354.951V47.5087H357.644C358.216 47.5087 358.68 47.4102 359.036 47.2133C359.392 47.0125 359.654 46.7398 359.82 46.3951C359.987 46.0504 360.07 45.6583 360.07 45.2189C360.07 44.7795 359.987 44.3894 359.82 44.0485C359.654 43.7076 359.39 43.4405 359.031 43.2473C358.674 43.0542 358.205 42.9576 357.621 42.9576H355.417V53.0883H353.661ZM363.759 53.0883V44.361H365.401V45.7473H365.492C365.651 45.2777 365.932 44.9083 366.333 44.6394C366.738 44.3667 367.197 44.2303 367.708 44.2303C367.814 44.2303 367.939 44.2341 368.083 44.2417C368.231 44.2492 368.346 44.2587 368.43 44.2701V45.8951C368.362 45.8761 368.24 45.8553 368.066 45.8326C367.892 45.8061 367.718 45.7928 367.543 45.7928C367.142 45.7928 366.784 45.878 366.469 46.0485C366.159 46.2152 365.913 46.4481 365.731 46.7473C365.549 47.0428 365.458 47.3799 365.458 47.7587V53.0883H363.759ZM373.263 53.2644C372.445 53.2644 371.731 53.0769 371.121 52.7019C370.512 52.3269 370.038 51.8023 369.701 51.128C369.364 50.4538 369.195 49.6659 369.195 48.7644C369.195 47.8591 369.364 47.0674 369.701 46.3894C370.038 45.7114 370.512 45.1848 371.121 44.8098C371.731 44.4348 372.445 44.2473 373.263 44.2473C374.082 44.2473 374.796 44.4348 375.406 44.8098C376.015 45.1848 376.489 45.7114 376.826 46.3894C377.163 47.0674 377.332 47.8591 377.332 48.7644C377.332 49.6659 377.163 50.4538 376.826 51.128C376.489 51.8023 376.015 52.3269 375.406 52.7019C374.796 53.0769 374.082 53.2644 373.263 53.2644ZM373.269 51.8383C373.799 51.8383 374.239 51.6981 374.587 51.4178C374.936 51.1375 375.193 50.7644 375.36 50.2985C375.531 49.8326 375.616 49.3193 375.616 48.7587C375.616 48.2019 375.531 47.6905 375.36 47.2246C375.193 46.7549 374.936 46.378 374.587 46.0939C374.239 45.8098 373.799 45.6678 373.269 45.6678C372.735 45.6678 372.292 45.8098 371.94 46.0939C371.591 46.378 371.332 46.7549 371.161 47.2246C370.995 47.6905 370.911 48.2019 370.911 48.7587C370.911 49.3193 370.995 49.8326 371.161 50.2985C371.332 50.7644 371.591 51.1375 371.94 51.4178C372.292 51.6981 372.735 51.8383 373.269 51.8383ZM382.495 53.2587C381.79 53.2587 381.162 53.0788 380.609 52.7189C380.059 52.3553 379.628 51.8383 379.313 51.1678C379.003 50.4936 378.847 49.6848 378.847 48.7417C378.847 47.7985 379.004 46.9917 379.319 46.3212C379.637 45.6508 380.073 45.1375 380.626 44.7814C381.179 44.4254 381.806 44.2473 382.506 44.2473C383.048 44.2473 383.484 44.3383 383.813 44.5201C384.147 44.6981 384.404 44.9064 384.586 45.1451C384.772 45.3837 384.915 45.5939 385.018 45.7758H385.12V41.4519H386.819V53.0883H385.16V51.7303H385.018C384.915 51.9159 384.768 52.128 384.575 52.3667C384.385 52.6053 384.124 52.8136 383.79 52.9917C383.457 53.1697 383.025 53.2587 382.495 53.2587ZM382.87 51.8098C383.359 51.8098 383.772 51.6811 384.109 51.4235C384.45 51.1621 384.707 50.8004 384.881 50.3383C385.059 49.8761 385.148 49.3383 385.148 48.7246C385.148 48.1186 385.061 47.5883 384.887 47.1337C384.713 46.6792 384.457 46.325 384.12 46.0712C383.783 45.8174 383.366 45.6905 382.87 45.6905C382.359 45.6905 381.933 45.8231 381.592 46.0883C381.251 46.3534 380.993 46.7152 380.819 47.1735C380.648 47.6318 380.563 48.1489 380.563 48.7246C380.563 49.308 380.65 49.8326 380.825 50.2985C380.999 50.7644 381.256 51.1337 381.597 51.4064C381.942 51.6754 382.366 51.8098 382.87 51.8098ZM394.772 49.4689V44.361H396.477V53.0883H394.806V51.5769H394.715C394.514 52.0428 394.192 52.4311 393.749 52.7417C393.31 53.0485 392.763 53.2019 392.107 53.2019C391.547 53.2019 391.05 53.0788 390.619 52.8326C390.191 52.5826 389.853 52.2133 389.607 51.7246C389.365 51.236 389.244 50.6318 389.244 49.9121V44.361H390.942V49.7076C390.942 50.3023 391.107 50.7758 391.437 51.128C391.766 51.4803 392.194 51.6564 392.721 51.6564C393.039 51.6564 393.355 51.5769 393.67 51.4178C393.988 51.2587 394.251 51.0182 394.46 50.6962C394.672 50.3742 394.776 49.9652 394.772 49.4689ZM402.435 53.2644C401.591 53.2644 400.863 53.0731 400.254 52.6905C399.647 52.3042 399.182 51.772 398.856 51.0939C398.53 50.4159 398.367 49.6394 398.367 48.7644C398.367 47.878 398.534 47.0958 398.867 46.4178C399.201 45.736 399.67 45.2038 400.276 44.8212C400.882 44.4386 401.596 44.2473 402.418 44.2473C403.081 44.2473 403.672 44.3705 404.191 44.6167C404.71 44.8591 405.129 45.2 405.447 45.6394C405.769 46.0788 405.96 46.592 406.021 47.1792H404.367C404.276 46.7701 404.068 46.4178 403.742 46.1223C403.42 45.8269 402.988 45.6792 402.447 45.6792C401.973 45.6792 401.558 45.8042 401.202 46.0542C400.85 46.3004 400.576 46.6527 400.379 47.111C400.182 47.5655 400.083 48.1034 400.083 48.7246C400.083 49.361 400.18 49.9102 400.373 50.3723C400.566 50.8345 400.839 51.1924 401.191 51.4462C401.547 51.7 401.966 51.8269 402.447 51.8269C402.769 51.8269 403.06 51.7682 403.322 51.6508C403.587 51.5295 403.808 51.3572 403.987 51.1337C404.168 50.9102 404.295 50.6413 404.367 50.3269H406.021C405.96 50.8913 405.776 51.3951 405.469 51.8383C405.163 52.2814 404.752 52.6299 404.237 52.8837C403.725 53.1375 403.125 53.2644 402.435 53.2644ZM411.911 44.361V45.7246H407.144V44.361H411.911ZM408.423 42.2701H410.121V50.5258C410.121 50.8553 410.171 51.1034 410.269 51.2701C410.368 51.433 410.495 51.5447 410.65 51.6053C410.809 51.6621 410.981 51.6905 411.167 51.6905C411.303 51.6905 411.423 51.6811 411.525 51.6621C411.627 51.6432 411.707 51.628 411.763 51.6167L412.07 53.0201C411.972 53.058 411.832 53.0958 411.65 53.1337C411.468 53.1754 411.241 53.1981 410.968 53.2019C410.521 53.2095 410.104 53.1299 409.718 52.9633C409.332 52.7966 409.019 52.539 408.781 52.1905C408.542 51.842 408.423 51.4045 408.423 50.878V42.2701ZM413.79 53.0883V44.361H415.489V53.0883H413.79ZM414.648 43.0144C414.353 43.0144 414.099 42.9159 413.887 42.7189C413.679 42.5182 413.575 42.2795 413.575 42.003C413.575 41.7227 413.679 41.4841 413.887 41.2871C414.099 41.0864 414.353 40.986 414.648 40.986C414.944 40.986 415.196 41.0864 415.404 41.2871C415.616 41.4841 415.722 41.7227 415.722 42.003C415.722 42.2795 415.616 42.5182 415.404 42.7189C415.196 42.9159 414.944 43.0144 414.648 43.0144ZM425.241 44.361L422.076 53.0883H420.258L417.087 44.361H418.911L421.121 51.0769H421.212L423.417 44.361H425.241ZM426.837 53.0883V44.361H428.536V53.0883H426.837ZM427.695 43.0144C427.4 43.0144 427.146 42.9159 426.934 42.7189C426.726 42.5182 426.621 42.2795 426.621 42.003C426.621 41.7227 426.726 41.4841 426.934 41.2871C427.146 41.0864 427.4 40.986 427.695 40.986C427.991 40.986 428.243 41.0864 428.451 41.2871C428.663 41.4841 428.769 41.7227 428.769 42.003C428.769 42.2795 428.663 42.5182 428.451 42.7189C428.243 42.9159 427.991 43.0144 427.695 43.0144ZM434.896 44.361V45.7246H430.129V44.361H434.896ZM431.407 42.2701H433.106V50.5258C433.106 50.8553 433.155 51.1034 433.254 51.2701C433.352 51.433 433.479 51.5447 433.634 51.6053C433.793 51.6621 433.966 51.6905 434.151 51.6905C434.288 51.6905 434.407 51.6811 434.509 51.6621C434.612 51.6432 434.691 51.628 434.748 51.6167L435.055 53.0201C434.956 53.058 434.816 53.0958 434.634 53.1337C434.452 53.1754 434.225 53.1981 433.952 53.2019C433.505 53.2095 433.089 53.1299 432.702 52.9633C432.316 52.7966 432.004 52.539 431.765 52.1905C431.526 51.842 431.407 51.4045 431.407 50.878V42.2701ZM437.849 56.361C437.595 56.361 437.364 56.3402 437.156 56.2985C436.947 56.2606 436.792 56.2189 436.69 56.1735L437.099 54.7814C437.409 54.8648 437.686 54.9008 437.928 54.8894C438.171 54.878 438.385 54.7871 438.57 54.6167C438.76 54.4462 438.926 54.1678 439.07 53.7814L439.281 53.2019L436.087 44.361H437.906L440.116 51.1337H440.207L442.417 44.361H444.241L440.644 54.253C440.478 54.7076 440.265 55.092 440.008 55.4064C439.75 55.7246 439.443 55.9633 439.087 56.1223C438.731 56.2814 438.318 56.361 437.849 56.361ZM452.612 53.2814C452.058 53.2814 451.558 53.1792 451.112 52.9746C450.665 52.7663 450.31 52.4652 450.049 52.0712C449.791 51.6773 449.663 51.1943 449.663 50.6223C449.663 50.1299 449.757 49.7246 449.947 49.4064C450.136 49.0883 450.392 48.8364 450.714 48.6508C451.036 48.4652 451.396 48.325 451.793 48.2303C452.191 48.1356 452.596 48.0636 453.009 48.0144C453.532 47.9538 453.956 47.9045 454.282 47.8667C454.608 47.825 454.844 47.7587 454.992 47.6678C455.14 47.5769 455.214 47.4292 455.214 47.2246V47.1848C455.214 46.6886 455.074 46.3042 454.793 46.0314C454.517 45.7587 454.104 45.6223 453.555 45.6223C452.983 45.6223 452.532 45.7492 452.202 46.003C451.877 46.253 451.651 46.5314 451.526 46.8383L449.93 46.4746C450.119 45.9443 450.396 45.5163 450.759 45.1905C451.127 44.861 451.549 44.6223 452.026 44.4746C452.504 44.3231 453.005 44.2473 453.532 44.2473C453.88 44.2473 454.25 44.289 454.64 44.3723C455.034 44.4519 455.401 44.5996 455.742 44.8155C456.087 45.0314 456.369 45.3402 456.589 45.7417C456.808 46.1394 456.918 46.6564 456.918 47.2928V53.0883H455.259V51.8951H455.191C455.081 52.1148 454.916 52.3307 454.697 52.5428C454.477 52.7549 454.195 52.9311 453.85 53.0712C453.505 53.2114 453.093 53.2814 452.612 53.2814ZM452.981 51.9178C453.451 51.9178 453.852 51.825 454.185 51.6394C454.522 51.4538 454.778 51.2114 454.952 50.9121C455.13 50.6091 455.219 50.2852 455.219 49.9405V48.8155C455.159 48.8761 455.041 48.933 454.867 48.986C454.697 49.0352 454.502 49.0788 454.282 49.1167C454.062 49.1508 453.848 49.183 453.64 49.2133C453.432 49.2398 453.257 49.2625 453.117 49.2814C452.788 49.3231 452.487 49.3932 452.214 49.4917C451.945 49.5902 451.729 49.7322 451.566 49.9178C451.407 50.0996 451.327 50.342 451.327 50.6451C451.327 51.0655 451.483 51.3837 451.793 51.5996C452.104 51.8117 452.5 51.9178 452.981 51.9178ZM460.88 47.9064V53.0883H459.181V44.361H460.812V45.7814H460.92C461.121 45.3193 461.435 44.9481 461.863 44.6678C462.295 44.3875 462.838 44.2473 463.494 44.2473C464.088 44.2473 464.609 44.3723 465.056 44.6223C465.503 44.8686 465.85 45.236 466.096 45.7246C466.342 46.2133 466.465 46.8174 466.465 47.5371V53.0883H464.766V47.7417C464.766 47.1091 464.602 46.6148 464.272 46.2587C463.942 45.8989 463.49 45.7189 462.914 45.7189C462.52 45.7189 462.17 45.8042 461.863 45.9746C461.56 46.1451 461.319 46.3951 461.141 46.7246C460.967 47.0504 460.88 47.4443 460.88 47.9064ZM472.011 53.2587C471.306 53.2587 470.677 53.0788 470.124 52.7189C469.575 52.3553 469.143 51.8383 468.829 51.1678C468.518 50.4936 468.363 49.6848 468.363 48.7417C468.363 47.7985 468.52 46.9917 468.835 46.3212C469.153 45.6508 469.588 45.1375 470.141 44.7814C470.694 44.4254 471.321 44.2473 472.022 44.2473C472.564 44.2473 472.999 44.3383 473.329 44.5201C473.662 44.6981 473.92 44.9064 474.102 45.1451C474.287 45.3837 474.431 45.5939 474.533 45.7758H474.636V41.4519H476.335V53.0883H474.675V51.7303H474.533C474.431 51.9159 474.283 52.128 474.09 52.3667C473.901 52.6053 473.639 52.8136 473.306 52.9917C472.973 53.1697 472.541 53.2587 472.011 53.2587ZM472.386 51.8098C472.874 51.8098 473.287 51.6811 473.624 51.4235C473.965 51.1621 474.223 50.8004 474.397 50.3383C474.575 49.8761 474.664 49.3383 474.664 48.7246C474.664 48.1186 474.577 47.5883 474.403 47.1337C474.228 46.6792 473.973 46.325 473.636 46.0712C473.299 45.8174 472.882 45.6905 472.386 45.6905C471.874 45.6905 471.448 45.8231 471.107 46.0883C470.766 46.3534 470.509 46.7152 470.335 47.1735C470.164 47.6318 470.079 48.1489 470.079 48.7246C470.079 49.308 470.166 49.8326 470.34 50.2985C470.514 50.7644 470.772 51.1337 471.113 51.4064C471.458 51.6754 471.882 51.8098 472.386 51.8098ZM371.31 64.236H369.538C369.469 63.8572 369.343 63.5239 369.157 63.236C368.971 62.9481 368.744 62.7038 368.475 62.503C368.206 62.3023 367.905 62.1508 367.572 62.0485C367.242 61.9462 366.892 61.8951 366.521 61.8951C365.85 61.8951 365.25 62.0636 364.719 62.4008C364.193 62.7379 363.776 63.2322 363.469 63.8837C363.166 64.5352 363.015 65.3307 363.015 66.2701C363.015 67.217 363.166 68.0163 363.469 68.6678C363.776 69.3193 364.195 69.8117 364.725 70.1451C365.255 70.4784 365.852 70.6451 366.515 70.6451C366.882 70.6451 367.231 70.5958 367.56 70.4973C367.894 70.3951 368.195 70.2455 368.464 70.0485C368.733 69.8515 368.96 69.611 369.146 69.3269C369.335 69.039 369.466 68.7095 369.538 68.3383L371.31 68.3439C371.216 68.9159 371.032 69.4424 370.759 69.9235C370.49 70.4008 370.144 70.8136 369.719 71.1621C369.299 71.5068 368.818 71.7739 368.276 71.9633C367.735 72.1527 367.144 72.2473 366.504 72.2473C365.496 72.2473 364.598 72.0087 363.81 71.5314C363.022 71.0504 362.401 70.3629 361.947 69.4689C361.496 68.575 361.271 67.5087 361.271 66.2701C361.271 65.0277 361.498 63.9614 361.952 63.0712C362.407 62.1773 363.028 61.4917 363.816 61.0144C364.604 60.5333 365.5 60.2928 366.504 60.2928C367.121 60.2928 367.697 60.3818 368.231 60.5598C368.769 60.7341 369.252 60.9917 369.68 61.3326C370.108 61.6697 370.462 62.0826 370.742 62.5712C371.022 63.0561 371.212 63.611 371.31 64.236ZM376.951 72.2644C376.133 72.2644 375.419 72.0769 374.809 71.7019C374.199 71.3269 373.726 70.8023 373.388 70.128C373.051 69.4538 372.883 68.6659 372.883 67.7644C372.883 66.8591 373.051 66.0674 373.388 65.3894C373.726 64.7114 374.199 64.1848 374.809 63.8098C375.419 63.4348 376.133 63.2473 376.951 63.2473C377.769 63.2473 378.483 63.4348 379.093 63.8098C379.703 64.1848 380.176 64.7114 380.513 65.3894C380.851 66.0674 381.019 66.8591 381.019 67.7644C381.019 68.6659 380.851 69.4538 380.513 70.128C380.176 70.8023 379.703 71.3269 379.093 71.7019C378.483 72.0769 377.769 72.2644 376.951 72.2644ZM376.957 70.8383C377.487 70.8383 377.926 70.6981 378.275 70.4178C378.623 70.1375 378.881 69.7644 379.048 69.2985C379.218 68.8326 379.303 68.3193 379.303 67.7587C379.303 67.2019 379.218 66.6905 379.048 66.2246C378.881 65.7549 378.623 65.378 378.275 65.0939C377.926 64.8098 377.487 64.6678 376.957 64.6678C376.423 64.6678 375.979 64.8098 375.627 65.0939C375.279 65.378 375.019 65.7549 374.849 66.2246C374.682 66.6905 374.599 67.2019 374.599 67.7587C374.599 68.3193 374.682 68.8326 374.849 69.2985C375.019 69.7644 375.279 70.1375 375.627 70.4178C375.979 70.6981 376.423 70.8383 376.957 70.8383ZM384.614 66.9064V72.0883H382.915V63.361H384.546V64.7814H384.654C384.855 64.3193 385.169 63.9481 385.597 63.6678C386.029 63.3875 386.573 63.2473 387.228 63.2473C387.823 63.2473 388.344 63.3723 388.79 63.6223C389.237 63.8686 389.584 64.236 389.83 64.7246C390.076 65.2133 390.2 65.8174 390.2 66.5371V72.0883H388.501V66.7417C388.501 66.1091 388.336 65.6148 388.006 65.2587C387.677 64.8989 387.224 64.7189 386.648 64.7189C386.254 64.7189 385.904 64.8042 385.597 64.9746C385.294 65.1451 385.054 65.3951 384.876 65.7246C384.701 66.0504 384.614 66.4443 384.614 66.9064ZM396.154 72.2644C395.309 72.2644 394.582 72.0731 393.972 71.6905C393.366 71.3042 392.9 70.772 392.575 70.0939C392.249 69.4159 392.086 68.6394 392.086 67.7644C392.086 66.878 392.253 66.0958 392.586 65.4178C392.919 64.736 393.389 64.2038 393.995 63.8212C394.601 63.4386 395.315 63.2473 396.137 63.2473C396.8 63.2473 397.391 63.3705 397.91 63.6167C398.429 63.8591 398.847 64.2 399.165 64.6394C399.487 65.0788 399.679 65.592 399.739 66.1792H398.086C397.995 65.7701 397.787 65.4178 397.461 65.1223C397.139 64.8269 396.707 64.6792 396.165 64.6792C395.692 64.6792 395.277 64.8042 394.921 65.0542C394.569 65.3004 394.294 65.6527 394.097 66.111C393.9 66.5655 393.802 67.1034 393.802 67.7246C393.802 68.361 393.898 68.9102 394.092 69.3723C394.285 69.8345 394.558 70.1924 394.91 70.4462C395.266 70.7 395.684 70.8269 396.165 70.8269C396.487 70.8269 396.779 70.7682 397.04 70.6508C397.306 70.5295 397.527 70.3572 397.705 70.1337C397.887 69.9102 398.014 69.6413 398.086 69.3269H399.739C399.679 69.8913 399.495 70.3951 399.188 70.8383C398.881 71.2814 398.47 71.6299 397.955 71.8837C397.444 72.1375 396.844 72.2644 396.154 72.2644ZM405.317 72.2644C404.458 72.2644 403.717 72.0807 403.096 71.7133C402.478 71.342 402.001 70.8212 401.664 70.1508C401.331 69.4765 401.164 68.6867 401.164 67.7814C401.164 66.8875 401.331 66.0996 401.664 65.4178C402.001 64.736 402.471 64.2038 403.073 63.8212C403.679 63.4386 404.388 63.2473 405.198 63.2473C405.691 63.2473 406.168 63.3288 406.63 63.4917C407.092 63.6545 407.507 63.9102 407.874 64.2587C408.242 64.6072 408.531 65.0598 408.744 65.6167C408.956 66.1697 409.062 66.842 409.062 67.6337V68.236H402.124V66.9633H407.397C407.397 66.5163 407.306 66.1205 407.124 65.7758C406.942 65.4273 406.687 65.1527 406.357 64.9519C406.031 64.7511 405.649 64.6508 405.21 64.6508C404.732 64.6508 404.316 64.7682 403.96 65.003C403.607 65.2341 403.335 65.5371 403.141 65.9121C402.952 66.2833 402.857 66.6867 402.857 67.1223V68.1167C402.857 68.7 402.96 69.1962 403.164 69.6053C403.372 70.0144 403.662 70.3269 404.033 70.5428C404.405 70.7549 404.838 70.861 405.335 70.861C405.656 70.861 405.95 70.8155 406.215 70.7246C406.48 70.6299 406.71 70.4898 406.903 70.3042C407.096 70.1186 407.244 69.8894 407.346 69.6167L408.954 69.9064C408.825 70.3799 408.594 70.7947 408.261 71.1508C407.931 71.503 407.516 71.7777 407.016 71.9746C406.52 72.1678 405.954 72.2644 405.317 72.2644ZM412.646 66.9064V72.0883H410.947V63.361H412.577V64.7814H412.685C412.886 64.3193 413.201 63.9481 413.629 63.6678C414.06 63.3875 414.604 63.2473 415.259 63.2473C415.854 63.2473 416.375 63.3723 416.822 63.6223C417.269 63.8686 417.615 64.236 417.862 64.7246C418.108 65.2133 418.231 65.8174 418.231 66.5371V72.0883H416.532V66.7417C416.532 66.1091 416.367 65.6148 416.038 65.2587C415.708 64.8989 415.255 64.7189 414.68 64.7189C414.286 64.7189 413.935 64.8042 413.629 64.9746C413.326 65.1451 413.085 65.3951 412.907 65.7246C412.733 66.0504 412.646 66.4443 412.646 66.9064ZM424.583 63.361V64.7246H419.816V63.361H424.583ZM421.094 61.2701H422.793V69.5258C422.793 69.8553 422.843 70.1034 422.941 70.2701C423.04 70.433 423.166 70.5447 423.322 70.6053C423.481 70.6621 423.653 70.6905 423.839 70.6905C423.975 70.6905 424.094 70.6811 424.197 70.6621C424.299 70.6432 424.379 70.628 424.435 70.6167L424.742 72.0201C424.644 72.058 424.504 72.0958 424.322 72.1337C424.14 72.1754 423.913 72.1981 423.64 72.2019C423.193 72.2095 422.776 72.1299 422.39 71.9633C422.004 71.7966 421.691 71.539 421.452 71.1905C421.214 70.842 421.094 70.4045 421.094 69.878V61.2701ZM426.462 72.0883V63.361H428.104V64.7473H428.195C428.354 64.2777 428.635 63.9083 429.036 63.6394C429.442 63.3667 429.9 63.2303 430.411 63.2303C430.517 63.2303 430.642 63.2341 430.786 63.2417C430.934 63.2492 431.049 63.2587 431.133 63.2701V64.8951C431.065 64.8761 430.943 64.8553 430.769 64.8326C430.595 64.8061 430.421 64.7928 430.246 64.7928C429.845 64.7928 429.487 64.878 429.173 65.0485C428.862 65.2152 428.616 65.4481 428.434 65.7473C428.252 66.0428 428.161 66.3799 428.161 66.7587V72.0883H426.462ZM435.065 72.2814C434.512 72.2814 434.012 72.1792 433.565 71.9746C433.118 71.7663 432.763 71.4652 432.502 71.0712C432.245 70.6773 432.116 70.1943 432.116 69.6223C432.116 69.1299 432.21 68.7246 432.4 68.4064C432.589 68.0883 432.845 67.8364 433.167 67.6508C433.489 67.4652 433.849 67.325 434.246 67.2303C434.644 67.1356 435.049 67.0636 435.462 67.0144C435.985 66.9538 436.409 66.9045 436.735 66.8667C437.061 66.825 437.298 66.7587 437.445 66.6678C437.593 66.5769 437.667 66.4292 437.667 66.2246V66.1848C437.667 65.6886 437.527 65.3042 437.246 65.0314C436.97 64.7587 436.557 64.6223 436.008 64.6223C435.436 64.6223 434.985 64.7492 434.656 65.003C434.33 65.253 434.104 65.5314 433.979 65.8383L432.383 65.4746C432.572 64.9443 432.849 64.5163 433.212 64.1905C433.58 63.861 434.002 63.6223 434.479 63.4746C434.957 63.3231 435.459 63.2473 435.985 63.2473C436.334 63.2473 436.703 63.289 437.093 63.3723C437.487 63.4519 437.854 63.5996 438.195 63.8155C438.54 64.0314 438.822 64.3402 439.042 64.7417C439.262 65.1394 439.371 65.6564 439.371 66.2928V72.0883H437.712V70.8951H437.644C437.534 71.1148 437.37 71.3307 437.15 71.5428C436.93 71.7549 436.648 71.9311 436.303 72.0712C435.959 72.2114 435.546 72.2814 435.065 72.2814ZM435.434 70.9178C435.904 70.9178 436.305 70.825 436.638 70.6394C436.976 70.4538 437.231 70.2114 437.406 69.9121C437.584 69.6091 437.673 69.2852 437.673 68.9405V67.8155C437.612 67.8761 437.495 67.933 437.32 67.986C437.15 68.0352 436.955 68.0788 436.735 68.1167C436.515 68.1508 436.301 68.183 436.093 68.2133C435.885 68.2398 435.71 68.2625 435.57 68.2814C435.241 68.3231 434.94 68.3932 434.667 68.4917C434.398 68.5902 434.182 68.7322 434.019 68.9178C433.86 69.0996 433.781 69.342 433.781 69.6451C433.781 70.0655 433.936 70.3837 434.246 70.5996C434.557 70.8117 434.953 70.9178 435.434 70.9178ZM445.708 63.361V64.7246H440.941V63.361H445.708ZM442.219 61.2701H443.918V69.5258C443.918 69.8553 443.968 70.1034 444.066 70.2701C444.165 70.433 444.291 70.5447 444.447 70.6053C444.606 70.6621 444.778 70.6905 444.964 70.6905C445.1 70.6905 445.219 70.6811 445.322 70.6621C445.424 70.6432 445.504 70.628 445.56 70.6167L445.867 72.0201C445.769 72.058 445.629 72.0958 445.447 72.1337C445.265 72.1754 445.038 72.1981 444.765 72.2019C444.318 72.2095 443.901 72.1299 443.515 71.9633C443.129 71.7966 442.816 71.539 442.577 71.1905C442.339 70.842 442.219 70.4045 442.219 69.878V61.2701ZM447.587 72.0883V63.361H449.286V72.0883H447.587ZM448.445 62.0144C448.15 62.0144 447.896 61.9159 447.684 61.7189C447.476 61.5182 447.371 61.2795 447.371 61.003C447.371 60.7227 447.476 60.4841 447.684 60.2871C447.896 60.0864 448.15 59.986 448.445 59.986C448.741 59.986 448.993 60.0864 449.201 60.2871C449.413 60.4841 449.519 60.7227 449.519 61.003C449.519 61.2795 449.413 61.5182 449.201 61.7189C448.993 61.9159 448.741 62.0144 448.445 62.0144ZM455.248 72.2644C454.43 72.2644 453.716 72.0769 453.106 71.7019C452.496 71.3269 452.022 70.8023 451.685 70.128C451.348 69.4538 451.18 68.6659 451.18 67.7644C451.18 66.8591 451.348 66.0674 451.685 65.3894C452.022 64.7114 452.496 64.1848 453.106 63.8098C453.716 63.4348 454.43 63.2473 455.248 63.2473C456.066 63.2473 456.78 63.4348 457.39 63.8098C458 64.1848 458.473 64.7114 458.81 65.3894C459.147 66.0674 459.316 66.8591 459.316 67.7644C459.316 68.6659 459.147 69.4538 458.81 70.128C458.473 70.8023 458 71.3269 457.39 71.7019C456.78 72.0769 456.066 72.2644 455.248 72.2644ZM455.254 70.8383C455.784 70.8383 456.223 70.6981 456.572 70.4178C456.92 70.1375 457.178 69.7644 457.344 69.2985C457.515 68.8326 457.6 68.3193 457.6 67.7587C457.6 67.2019 457.515 66.6905 457.344 66.2246C457.178 65.7549 456.92 65.378 456.572 65.0939C456.223 64.8098 455.784 64.6678 455.254 64.6678C454.719 64.6678 454.276 64.8098 453.924 65.0939C453.576 65.378 453.316 65.7549 453.146 66.2246C452.979 66.6905 452.896 67.2019 452.896 67.7587C452.896 68.3193 452.979 68.8326 453.146 69.2985C453.316 69.7644 453.576 70.1375 453.924 70.4178C454.276 70.6981 454.719 70.8383 455.254 70.8383ZM462.911 66.9064V72.0883H461.212V63.361H462.843V64.7814H462.951C463.152 64.3193 463.466 63.9481 463.894 63.6678C464.326 63.3875 464.87 63.2473 465.525 63.2473C466.12 63.2473 466.64 63.3723 467.087 63.6223C467.534 63.8686 467.881 64.236 468.127 64.7246C468.373 65.2133 468.496 65.8174 468.496 66.5371V72.0883H466.798V66.7417C466.798 66.1091 466.633 65.6148 466.303 65.2587C465.974 64.8989 465.521 64.7189 464.945 64.7189C464.551 64.7189 464.201 64.8042 463.894 64.9746C463.591 65.1451 463.351 65.3951 463.173 65.7246C462.998 66.0504 462.911 66.4443 462.911 66.9064Z" fill="#134A47"/>
<circle cx="521" cy="54.0883" r="10" fill="#3DF7FF" stroke="white" stroke-width="4"/>
<defs>
<linearGradient id="paint0_linear_0_1395" x1="521" y1="297.5" x2="39" y2="217.5" gradientUnits="userSpaceOnUse">
<stop offset="0.513085" stop-color="#5A91FF"/>
<stop offset="0.799452" stop-color="#5A91FF" stop-opacity="0.58"/>
<stop offset="1" stop-color="#5A91FF" stop-opacity="0"/>
</linearGradient>
<linearGradient id="paint1_linear_0_1395" x1="520.5" y1="85.9231" x2="31.5783" y2="209.871" gradientUnits="userSpaceOnUse">
<stop offset="0.0812449" stop-color="#3DF7FF" stop-opacity="0"/>
<stop offset="0.2" stop-color="#3DF7FF" stop-opacity="0.512923"/>
<stop offset="0.351763" stop-color="#3DF7FF"/>
<stop offset="0.661149" stop-color="#8089FF"/>
<stop offset="1" stop-color="#F175B9"/>
</linearGradient>
<linearGradient id="paint2_linear_0_1395" x1="52.0429" y1="62.0885" x2="531.952" y2="197.345" gradientUnits="userSpaceOnUse">
<stop stop-color="#134A47"/>
<stop offset="0.299667" stop-color="#5A91FF"/>
<stop offset="1" stop-color="#5A91FF"/>
</linearGradient>
<linearGradient id="paint3_linear_0_1395" x1="79.8303" y1="306.144" x2="533.505" y2="271.226" gradientUnits="userSpaceOnUse">
<stop stop-color="#F175B9"/>
<stop offset="0.305" stop-color="#8089FF"/>
<stop offset="0.81" stop-color="#3DF7FF"/>
</linearGradient>
</defs>
</svg>
